<svg width="122" height="56" viewBox="0 0 122 56" fill="none" xmlns="http://www.w3.org/2000/svg">
<path d="M14.1053 23.1111H26.1424V32.8889H14.1053V23.1111Z" stroke="black" stroke-width="2" stroke-linecap="round" stroke-linejoin="round"/>
<path d="M17.8091 30.2222V25.7778L20.1239 28.4444L22.4387 25.7778V30.2222M30.772 22.2222L25.2165 17.7778M30.772 22.2222L26.1424 23.1111M30.772 22.2222V31.5555L26.1424 32.8889V23.1111M25.2165 17.7778L20.5868 18.6666V16L25.2165 15.1111V17.7778ZM26.1424 23.1111H14.1053L20.347 18.6666L26.1424 23.1111Z" stroke="black" stroke-width="2" stroke-linecap="round" stroke-linejoin="round"/>
<path d="M25.1053 18.1111H37.1424V27.8889H25.1053V18.1111Z" stroke="black" stroke-width="2" stroke-linecap="round" stroke-linejoin="round"/>
<path d="M28.8091 25.2222V20.7778L31.1239 23.4444L33.4387 20.7778V25.2222M41.772 17.2222L36.2165 12.7778M41.772 17.2222L37.1424 18.1111M41.772 17.2222V26.5555L37.1424 27.8889V18.1111M36.2165 12.7778L31.5868 13.6666V11L36.2165 10.1111V12.7778ZM37.1424 18.1111H25.1053L31.347 13.6666L37.1424 18.1111Z" stroke="black" stroke-width="2" stroke-linecap="round" stroke-linejoin="round"/>
<path d="M58.0221 20.4662V18.8712H63.9779V20.4662H58.0221ZM58.0221 23.1288V21.546H63.9779V23.1288H58.0221Z" fill="black"/>
<g clip-path="url(#clip0_93_286)">
<path d="M77.9779 20.5V23.5C77.9779 27.4 81.0779 30.5 84.9779 30.5H90.9779C94.8779 30.5 97.9779 27.4 97.9779 23.5V20.5H77.9779ZM79.9779 22.5H95.9779V23.5C95.9779 26.3 93.7779 28.5 90.9779 28.5H84.9779C82.1779 28.5 79.9779 26.3 79.9779 23.5V22.5Z" fill="black"/>
<path d="M80.778 22.5C80.778 17.7 95.178 14.1 95.178 22.5" stroke="black" stroke-width="2"/>
</g>
<path d="M3.66019 52.07C3.27285 52.07 2.92752 51.986 2.62419 51.818C2.32552 51.65 2.08752 51.4213 1.91019 51.132C1.73752 50.8427 1.65119 50.5113 1.65119 50.138C1.65119 49.7647 1.73752 49.4333 1.91019 49.144C2.08752 48.8547 2.32552 48.626 2.62419 48.458C2.92752 48.29 3.27285 48.206 3.66019 48.206C4.04752 48.206 4.39052 48.29 4.68919 48.458C4.99252 48.626 5.23052 48.8547 5.40319 49.144C5.57585 49.4333 5.66219 49.7647 5.66219 50.138C5.66219 50.5113 5.57585 50.8427 5.40319 51.132C5.23052 51.4213 4.99252 51.65 4.68919 51.818C4.39052 51.986 4.04752 52.07 3.66019 52.07ZM3.66019 51.104C3.82819 51.104 3.97752 51.062 4.10819 50.978C4.23885 50.894 4.34152 50.7797 4.41619 50.635C4.49085 50.4903 4.52585 50.3247 4.52119 50.138C4.52585 49.9513 4.49085 49.7857 4.41619 49.641C4.34152 49.4917 4.23885 49.375 4.10819 49.291C3.97752 49.207 3.82819 49.165 3.66019 49.165C3.49219 49.165 3.34052 49.207 3.20519 49.291C3.07452 49.375 2.97185 49.4917 2.89719 49.641C2.82252 49.7857 2.78752 49.9513 2.79219 50.138C2.78752 50.3247 2.82252 50.4903 2.89719 50.635C2.97185 50.7797 3.07452 50.894 3.20519 50.978C3.34052 51.062 3.49219 51.104 3.66019 51.104ZM8.13302 52L6.57902 48.283H7.81802L8.74202 51.062L8.46902 51.09L9.42102 48.283H10.646L9.01502 52H8.13302ZM13.5988 52.07C13.1881 52.07 12.8311 51.9883 12.5278 51.825C12.2244 51.657 11.9888 51.4307 11.8208 51.146C11.6528 50.8567 11.5688 50.5277 11.5688 50.159C11.5688 49.8743 11.6154 49.613 11.7088 49.375C11.8021 49.137 11.9328 48.9317 12.1008 48.759C12.2688 48.5817 12.4671 48.4463 12.6958 48.353C12.9291 48.255 13.1834 48.206 13.4588 48.206C13.7201 48.206 13.9581 48.2527 14.1728 48.346C14.3921 48.4393 14.5811 48.57 14.7398 48.738C14.8984 48.906 15.0198 49.1043 15.1038 49.333C15.1878 49.5617 15.2251 49.8113 15.2158 50.082L15.2088 50.383H12.2478L12.0868 49.753H14.2988L14.1798 49.886V49.746C14.1704 49.6293 14.1331 49.5267 14.0678 49.438C14.0071 49.3447 13.9254 49.2723 13.8228 49.221C13.7201 49.1697 13.6034 49.144 13.4728 49.144C13.2908 49.144 13.1344 49.1813 13.0038 49.256C12.8778 49.326 12.7821 49.431 12.7168 49.571C12.6514 49.7063 12.6188 49.8743 12.6188 50.075C12.6188 50.2803 12.6608 50.46 12.7448 50.614C12.8334 50.7633 12.9594 50.88 13.1228 50.964C13.2908 51.048 13.4891 51.09 13.7178 51.09C13.8764 51.09 14.0164 51.0667 14.1378 51.02C14.2638 50.9733 14.3991 50.894 14.5438 50.782L15.0688 51.524C14.9241 51.65 14.7701 51.7527 14.6068 51.832C14.4434 51.9113 14.2754 51.9697 14.1028 52.007C13.9348 52.049 13.7668 52.07 13.5988 52.07ZM16.6293 52V48.283H17.6933L17.7423 49.494L17.5323 49.263C17.5883 49.0623 17.6793 48.8827 17.8053 48.724C17.936 48.5653 18.0877 48.4393 18.2603 48.346C18.433 48.2527 18.6173 48.206 18.8133 48.206C18.8973 48.206 18.9743 48.213 19.0443 48.227C19.119 48.241 19.1867 48.2573 19.2473 48.276L18.9393 49.515C18.888 49.4823 18.818 49.4567 18.7293 49.438C18.6453 49.4147 18.5567 49.403 18.4633 49.403C18.3607 49.403 18.265 49.4217 18.1763 49.459C18.0877 49.4917 18.013 49.5407 17.9523 49.606C17.8917 49.6713 17.8427 49.7483 17.8053 49.837C17.7727 49.9257 17.7563 50.026 17.7563 50.138V52H16.6293ZM20.5219 52V46.82H21.6419V52H20.5219ZM24.6445 52.063C24.3318 52.063 24.0518 51.9813 23.8045 51.818C23.5618 51.65 23.3682 51.4213 23.2235 51.132C23.0788 50.838 23.0065 50.5067 23.0065 50.138C23.0065 49.76 23.0788 49.4263 23.2235 49.137C23.3682 48.8477 23.5665 48.6213 23.8185 48.458C24.0705 48.29 24.3575 48.206 24.6795 48.206C24.8568 48.206 25.0178 48.2317 25.1625 48.283C25.3118 48.3343 25.4425 48.4067 25.5545 48.5C25.6665 48.5887 25.7622 48.6937 25.8415 48.815C25.9208 48.9317 25.9792 49.0577 26.0165 49.193L25.7855 49.165V48.283H26.8985V52H25.7645V51.104L26.0165 51.097C25.9792 51.2277 25.9185 51.3513 25.8345 51.468C25.7505 51.5847 25.6478 51.6873 25.5265 51.776C25.4052 51.8647 25.2698 51.9347 25.1205 51.986C24.9712 52.0373 24.8125 52.063 24.6445 52.063ZM24.9525 51.118C25.1252 51.118 25.2745 51.0783 25.4005 50.999C25.5265 50.9197 25.6245 50.8077 25.6945 50.663C25.7645 50.5137 25.7995 50.3387 25.7995 50.138C25.7995 49.9373 25.7645 49.7647 25.6945 49.62C25.6245 49.4707 25.5265 49.3563 25.4005 49.277C25.2745 49.193 25.1252 49.151 24.9525 49.151C24.7845 49.151 24.6375 49.193 24.5115 49.277C24.3902 49.3563 24.2945 49.4707 24.2245 49.62C24.1545 49.7647 24.1195 49.9373 24.1195 50.138C24.1195 50.3387 24.1545 50.5137 24.2245 50.663C24.2945 50.8077 24.3902 50.9197 24.5115 50.999C24.6375 51.0783 24.7845 51.118 24.9525 51.118ZM28.5867 53.54V48.283H29.6507L29.6927 49.116L29.4827 49.053C29.5154 48.899 29.5947 48.759 29.7207 48.633C29.8467 48.507 30.0054 48.4067 30.1967 48.332C30.3927 48.2527 30.5981 48.213 30.8127 48.213C31.1301 48.213 31.4124 48.297 31.6597 48.465C31.9071 48.6283 32.1007 48.8547 32.2407 49.144C32.3854 49.4287 32.4577 49.76 32.4577 50.138C32.4577 50.5113 32.3854 50.8427 32.2407 51.132C32.1007 51.4213 31.9047 51.65 31.6527 51.818C31.4054 51.9813 31.1207 52.063 30.7987 52.063C30.5887 52.063 30.3881 52.0233 30.1967 51.944C30.0054 51.8647 29.8444 51.7573 29.7137 51.622C29.5831 51.4867 29.4967 51.3397 29.4547 51.181L29.7137 51.083V53.54H28.5867ZM30.5257 51.118C30.6937 51.118 30.8407 51.0783 30.9667 50.999C31.0927 50.915 31.1907 50.8007 31.2607 50.656C31.3307 50.5113 31.3657 50.3387 31.3657 50.138C31.3657 49.942 31.3307 49.7717 31.2607 49.627C31.1907 49.4777 31.0927 49.3633 30.9667 49.284C30.8454 49.2 30.6984 49.158 30.5257 49.158C30.3531 49.158 30.2037 49.1977 30.0777 49.277C29.9517 49.3563 29.8537 49.4707 29.7837 49.62C29.7137 49.7693 29.6787 49.942 29.6787 50.138C29.6787 50.3387 29.7137 50.5113 29.7837 50.656C29.8537 50.8007 29.9517 50.915 30.0777 50.999C30.2037 51.0783 30.3531 51.118 30.5257 51.118ZM36.9062 52V48.283H38.0262V52H36.9062ZM37.4662 47.548C37.2562 47.548 37.0905 47.499 36.9692 47.401C36.8525 47.2983 36.7942 47.1537 36.7942 46.967C36.7942 46.799 36.8549 46.6613 36.9762 46.554C37.0975 46.4467 37.2609 46.393 37.4662 46.393C37.6762 46.393 37.8395 46.4443 37.9562 46.547C38.0729 46.645 38.1312 46.785 38.1312 46.967C38.1312 47.1397 38.0705 47.2797 37.9492 47.387C37.8325 47.4943 37.6715 47.548 37.4662 47.548ZM39.7785 52V48.283H40.8425L40.8775 49.039L40.6535 49.123C40.7049 48.955 40.7959 48.8033 40.9265 48.668C41.0619 48.528 41.2229 48.416 41.4095 48.332C41.5962 48.248 41.7922 48.206 41.9975 48.206C42.2775 48.206 42.5132 48.2643 42.7045 48.381C42.8959 48.493 43.0405 48.6633 43.1385 48.892C43.2365 49.116 43.2855 49.3913 43.2855 49.718V52H42.1585V49.809C42.1585 49.6597 42.1375 49.536 42.0955 49.438C42.0535 49.34 41.9882 49.2677 41.8995 49.221C41.8155 49.1697 41.7105 49.1463 41.5845 49.151C41.4865 49.151 41.3955 49.1673 41.3115 49.2C41.2275 49.228 41.1552 49.2723 41.0945 49.333C41.0339 49.389 40.9849 49.4543 40.9475 49.529C40.9149 49.6037 40.8985 49.6853 40.8985 49.774V52H40.3455C40.2149 52 40.1029 52 40.0095 52C39.9162 52 39.8392 52 39.7785 52ZM46.6229 53.61C46.3196 53.61 46.0162 53.5657 45.7129 53.477C45.4142 53.3883 45.1716 53.274 44.9849 53.134L45.3769 52.35C45.4749 52.4153 45.5822 52.4713 45.6989 52.518C45.8202 52.5693 45.9462 52.609 46.0769 52.637C46.2076 52.665 46.3406 52.679 46.4759 52.679C46.7139 52.679 46.9076 52.644 47.0569 52.574C47.2062 52.504 47.3182 52.3967 47.3929 52.252C47.4676 52.112 47.5049 51.9347 47.5049 51.72V51.097L47.7219 51.132C47.6892 51.286 47.6076 51.426 47.4769 51.552C47.3509 51.678 47.1946 51.7807 47.0079 51.86C46.8212 51.9347 46.6229 51.972 46.4129 51.972C46.0769 51.972 45.7759 51.895 45.5099 51.741C45.2486 51.5823 45.0409 51.3653 44.8869 51.09C44.7376 50.81 44.6629 50.488 44.6629 50.124C44.6629 49.7507 44.7376 49.4217 44.8869 49.137C45.0362 48.8477 45.2416 48.6213 45.5029 48.458C45.7642 48.29 46.0582 48.206 46.3849 48.206C46.5249 48.206 46.6579 48.2223 46.7839 48.255C46.9146 48.2877 47.0336 48.332 47.1409 48.388C47.2529 48.4393 47.3509 48.5023 47.4349 48.577C47.5236 48.647 47.5936 48.724 47.6449 48.808C47.7009 48.892 47.7382 48.9783 47.7569 49.067L47.5259 49.123L47.5679 48.283H48.6319V51.699C48.6319 52.0023 48.5852 52.2707 48.4919 52.504C48.4032 52.742 48.2702 52.9427 48.0929 53.106C47.9202 53.274 47.7102 53.4 47.4629 53.484C47.2156 53.568 46.9356 53.61 46.6229 53.61ZM46.6509 51.104C46.8329 51.104 46.9892 51.0643 47.1199 50.985C47.2552 50.901 47.3579 50.7867 47.4279 50.642C47.5026 50.4973 47.5399 50.327 47.5399 50.131C47.5399 49.935 47.5026 49.7647 47.4279 49.62C47.3579 49.4707 47.2552 49.3563 47.1199 49.277C46.9892 49.193 46.8329 49.151 46.6509 49.151C46.4736 49.151 46.3196 49.193 46.1889 49.277C46.0582 49.3563 45.9556 49.4707 45.8809 49.62C45.8109 49.7647 45.7759 49.935 45.7759 50.131C45.7759 50.327 45.8109 50.4973 45.8809 50.642C45.9556 50.7867 46.0582 50.901 46.1889 50.985C46.3196 51.0643 46.4736 51.104 46.6509 51.104ZM50.3045 52V48.283H51.3685L51.4175 49.494L51.2075 49.263C51.2635 49.0623 51.3545 48.8827 51.4805 48.724C51.6112 48.5653 51.7629 48.4393 51.9355 48.346C52.1082 48.2527 52.2925 48.206 52.4885 48.206C52.5725 48.206 52.6495 48.213 52.7195 48.227C52.7942 48.241 52.8619 48.2573 52.9225 48.276L52.6145 49.515C52.5632 49.4823 52.4932 49.4567 52.4045 49.438C52.3205 49.4147 52.2319 49.403 52.1385 49.403C52.0359 49.403 51.9402 49.4217 51.8515 49.459C51.7629 49.4917 51.6882 49.5407 51.6275 49.606C51.5669 49.6713 51.5179 49.7483 51.4805 49.837C51.4479 49.9257 51.4315 50.026 51.4315 50.138V52H50.3045ZM55.8038 52.07C55.3932 52.07 55.0362 51.9883 54.7328 51.825C54.4295 51.657 54.1938 51.4307 54.0258 51.146C53.8578 50.8567 53.7738 50.5277 53.7738 50.159C53.7738 49.8743 53.8205 49.613 53.9138 49.375C54.0072 49.137 54.1378 48.9317 54.3058 48.759C54.4738 48.5817 54.6722 48.4463 54.9008 48.353C55.1342 48.255 55.3885 48.206 55.6638 48.206C55.9252 48.206 56.1632 48.2527 56.3778 48.346C56.5972 48.4393 56.7862 48.57 56.9448 48.738C57.1035 48.906 57.2248 49.1043 57.3088 49.333C57.3928 49.5617 57.4302 49.8113 57.4208 50.082L57.4138 50.383H54.4528L54.2918 49.753H56.5038L56.3848 49.886V49.746C56.3755 49.6293 56.3382 49.5267 56.2728 49.438C56.2122 49.3447 56.1305 49.2723 56.0278 49.221C55.9252 49.1697 55.8085 49.144 55.6778 49.144C55.4958 49.144 55.3395 49.1813 55.2088 49.256C55.0828 49.326 54.9872 49.431 54.9218 49.571C54.8565 49.7063 54.8238 49.8743 54.8238 50.075C54.8238 50.2803 54.8658 50.46 54.9498 50.614C55.0385 50.7633 55.1645 50.88 55.3278 50.964C55.4958 51.048 55.6942 51.09 55.9228 51.09C56.0815 51.09 56.2215 51.0667 56.3428 51.02C56.4688 50.9733 56.6042 50.894 56.7488 50.782L57.2738 51.524C57.1292 51.65 56.9752 51.7527 56.8118 51.832C56.6485 51.9113 56.4805 51.9697 56.3078 52.007C56.1398 52.049 55.9718 52.07 55.8038 52.07ZM60.2414 52.077C59.9194 52.077 59.6324 51.9953 59.3804 51.832C59.1331 51.664 58.9371 51.4353 58.7924 51.146C58.6477 50.852 58.5754 50.5183 58.5754 50.145C58.5754 49.7717 58.6477 49.4403 58.7924 49.151C58.9371 48.857 59.1354 48.626 59.3874 48.458C59.6394 48.29 59.9287 48.206 60.2554 48.206C60.4234 48.206 60.5844 48.2317 60.7384 48.283C60.8924 48.3343 61.0324 48.4043 61.1584 48.493C61.2844 48.5817 61.3871 48.6843 61.4664 48.801C61.5457 48.913 61.5924 49.0297 61.6064 49.151L61.3404 49.214V46.82H62.4674V52H61.4244L61.3614 51.153L61.5854 51.188C61.5714 51.3047 61.5247 51.4167 61.4454 51.524C61.3707 51.6313 61.2727 51.727 61.1514 51.811C61.0301 51.8903 60.8901 51.9533 60.7314 52C60.5774 52.0513 60.4141 52.077 60.2414 52.077ZM60.5284 51.146C60.7011 51.146 60.8504 51.104 60.9764 51.02C61.1024 50.936 61.1981 50.8193 61.2634 50.67C61.3334 50.5207 61.3684 50.3457 61.3684 50.145C61.3684 49.9397 61.3334 49.7623 61.2634 49.613C61.1981 49.4637 61.1024 49.347 60.9764 49.263C60.8504 49.179 60.7011 49.137 60.5284 49.137C60.3557 49.137 60.2064 49.179 60.0804 49.263C59.9591 49.347 59.8634 49.4637 59.7934 49.613C59.7234 49.7623 59.6884 49.9397 59.6884 50.145C59.6884 50.3457 59.7234 50.5207 59.7934 50.67C59.8634 50.8193 59.9591 50.936 60.0804 51.02C60.2064 51.104 60.3557 51.146 60.5284 51.146ZM64.1775 52V48.283H65.2975V52H64.1775ZM64.7375 47.548C64.5275 47.548 64.3618 47.499 64.2405 47.401C64.1238 47.2983 64.0655 47.1537 64.0655 46.967C64.0655 46.799 64.1261 46.6613 64.2475 46.554C64.3688 46.4467 64.5321 46.393 64.7375 46.393C64.9475 46.393 65.1108 46.4443 65.2275 46.547C65.3441 46.645 65.4025 46.785 65.4025 46.967C65.4025 47.1397 65.3418 47.2797 65.2205 47.387C65.1038 47.4943 64.9428 47.548 64.7375 47.548ZM68.8208 52.07C68.4102 52.07 68.0532 51.9883 67.7498 51.825C67.4465 51.657 67.2108 51.4307 67.0428 51.146C66.8748 50.8567 66.7908 50.5277 66.7908 50.159C66.7908 49.8743 66.8375 49.613 66.9308 49.375C67.0242 49.137 67.1548 48.9317 67.3228 48.759C67.4908 48.5817 67.6892 48.4463 67.9178 48.353C68.1512 48.255 68.4055 48.206 68.6808 48.206C68.9422 48.206 69.1802 48.2527 69.3948 48.346C69.6142 48.4393 69.8032 48.57 69.9618 48.738C70.1205 48.906 70.2418 49.1043 70.3258 49.333C70.4098 49.5617 70.4472 49.8113 70.4378 50.082L70.4308 50.383H67.4698L67.3088 49.753H69.5208L69.4018 49.886V49.746C69.3925 49.6293 69.3552 49.5267 69.2898 49.438C69.2292 49.3447 69.1475 49.2723 69.0448 49.221C68.9422 49.1697 68.8255 49.144 68.6948 49.144C68.5128 49.144 68.3565 49.1813 68.2258 49.256C68.0998 49.326 68.0042 49.431 67.9388 49.571C67.8735 49.7063 67.8408 49.8743 67.8408 50.075C67.8408 50.2803 67.8828 50.46 67.9668 50.614C68.0555 50.7633 68.1815 50.88 68.3448 50.964C68.5128 51.048 68.7112 51.09 68.9398 51.09C69.0985 51.09 69.2385 51.0667 69.3598 51.02C69.4858 50.9733 69.6212 50.894 69.7658 50.782L70.2908 51.524C70.1462 51.65 69.9922 51.7527 69.8288 51.832C69.6655 51.9113 69.4975 51.9697 69.3248 52.007C69.1568 52.049 68.9888 52.07 68.8208 52.07ZM71.8514 52V48.283H72.9154L72.9504 49.039L72.7264 49.123C72.7777 48.955 72.8687 48.8033 72.9994 48.668C73.1347 48.528 73.2957 48.416 73.4824 48.332C73.6691 48.248 73.8651 48.206 74.0704 48.206C74.3504 48.206 74.5861 48.2643 74.7774 48.381C74.9687 48.493 75.1134 48.6633 75.2114 48.892C75.3094 49.116 75.3584 49.3913 75.3584 49.718V52H74.2314V49.809C74.2314 49.6597 74.2104 49.536 74.1684 49.438C74.1264 49.34 74.0611 49.2677 73.9724 49.221C73.8884 49.1697 73.7834 49.1463 73.6574 49.151C73.5594 49.151 73.4684 49.1673 73.3844 49.2C73.3004 49.228 73.2281 49.2723 73.1674 49.333C73.1067 49.389 73.0577 49.4543 73.0204 49.529C72.9877 49.6037 72.9714 49.6853 72.9714 49.774V52H72.4184C72.2877 52 72.1757 52 72.0824 52C71.9891 52 71.9121 52 71.8514 52ZM77.3028 52V47.345H78.4228V52H77.3028ZM76.6448 49.263V48.283H79.1438V49.263H76.6448ZM81.8735 52.07C81.5095 52.07 81.1875 52.0117 80.9075 51.895C80.6322 51.7783 80.4129 51.622 80.2495 51.426L80.9285 50.838C81.0732 50.9827 81.2365 51.09 81.4185 51.16C81.6005 51.2253 81.7732 51.258 81.9365 51.258C82.0019 51.258 82.0602 51.251 82.1115 51.237C82.1629 51.223 82.2049 51.2043 82.2375 51.181C82.2749 51.153 82.3029 51.1227 82.3215 51.09C82.3402 51.0527 82.3495 51.0107 82.3495 50.964C82.3495 50.8707 82.3075 50.7983 82.2235 50.747C82.1815 50.7237 82.1115 50.6957 82.0135 50.663C81.9155 50.6303 81.7895 50.593 81.6355 50.551C81.4162 50.495 81.2249 50.4297 81.0615 50.355C80.9029 50.2757 80.7722 50.1847 80.6695 50.082C80.5762 49.984 80.5039 49.8767 80.4525 49.76C80.4012 49.6387 80.3755 49.5033 80.3755 49.354C80.3755 49.1813 80.4152 49.025 80.4945 48.885C80.5785 48.745 80.6882 48.6237 80.8235 48.521C80.9635 48.4183 81.1222 48.3413 81.2995 48.29C81.4815 48.234 81.6682 48.206 81.8595 48.206C82.0649 48.206 82.2609 48.2293 82.4475 48.276C82.6342 48.3227 82.8069 48.388 82.9655 48.472C83.1289 48.556 83.2735 48.6563 83.3995 48.773L82.8115 49.431C82.7275 49.3517 82.6319 49.2817 82.5245 49.221C82.4219 49.1557 82.3145 49.1043 82.2025 49.067C82.0905 49.0297 81.9879 49.011 81.8945 49.011C81.8245 49.011 81.7615 49.018 81.7055 49.032C81.6542 49.0413 81.6099 49.06 81.5725 49.088C81.5352 49.1113 81.5072 49.1417 81.4885 49.179C81.4699 49.2117 81.4605 49.2513 81.4605 49.298C81.4605 49.3447 81.4722 49.389 81.4955 49.431C81.5235 49.473 81.5609 49.508 81.6075 49.536C81.6542 49.564 81.7289 49.5967 81.8315 49.634C81.9342 49.6667 82.0742 49.7087 82.2515 49.76C82.4709 49.8207 82.6599 49.8883 82.8185 49.963C82.9772 50.0377 83.1032 50.1263 83.1965 50.229C83.2712 50.3083 83.3272 50.4017 83.3645 50.509C83.4019 50.6117 83.4205 50.7237 83.4205 50.845C83.4205 51.083 83.3529 51.2953 83.2175 51.482C83.0869 51.664 82.9049 51.8087 82.6715 51.916C82.4382 52.0187 82.1722 52.07 81.8735 52.07ZM88.0365 52V47.345H89.1565V52H88.0365ZM87.3785 49.263V48.283H89.8775V49.263H87.3785ZM92.9334 52.07C92.5461 52.07 92.2008 51.986 91.8974 51.818C91.5988 51.65 91.3608 51.4213 91.1834 51.132C91.0108 50.8427 90.9244 50.5113 90.9244 50.138C90.9244 49.7647 91.0108 49.4333 91.1834 49.144C91.3608 48.8547 91.5988 48.626 91.8974 48.458C92.2008 48.29 92.5461 48.206 92.9334 48.206C93.3208 48.206 93.6638 48.29 93.9624 48.458C94.2658 48.626 94.5038 48.8547 94.6764 49.144C94.8491 49.4333 94.9354 49.7647 94.9354 50.138C94.9354 50.5113 94.8491 50.8427 94.6764 51.132C94.5038 51.4213 94.2658 51.65 93.9624 51.818C93.6638 51.986 93.3208 52.07 92.9334 52.07ZM92.9334 51.104C93.1014 51.104 93.2508 51.062 93.3814 50.978C93.5121 50.894 93.6148 50.7797 93.6894 50.635C93.7641 50.4903 93.7991 50.3247 93.7944 50.138C93.7991 49.9513 93.7641 49.7857 93.6894 49.641C93.6148 49.4917 93.5121 49.375 93.3814 49.291C93.2508 49.207 93.1014 49.165 92.9334 49.165C92.7654 49.165 92.6138 49.207 92.4784 49.291C92.3478 49.375 92.2451 49.4917 92.1704 49.641C92.0958 49.7857 92.0608 49.9513 92.0654 50.138C92.0608 50.3247 92.0958 50.4903 92.1704 50.635C92.2451 50.7797 92.3478 50.894 92.4784 50.978C92.6138 51.062 92.7654 51.104 92.9334 51.104ZM99.303 52V48.283H100.367L100.402 48.955L100.255 48.962C100.311 48.8407 100.381 48.7333 100.465 48.64C100.554 48.5467 100.652 48.4697 100.759 48.409C100.871 48.3437 100.985 48.2947 101.102 48.262C101.223 48.2293 101.345 48.213 101.466 48.213C101.648 48.213 101.814 48.241 101.963 48.297C102.112 48.353 102.243 48.444 102.355 48.57C102.467 48.6913 102.556 48.857 102.621 49.067L102.446 49.053L102.502 48.941C102.563 48.829 102.64 48.7287 102.733 48.64C102.831 48.5467 102.938 48.4697 103.055 48.409C103.172 48.3437 103.293 48.2947 103.419 48.262C103.545 48.2293 103.666 48.213 103.783 48.213C104.077 48.213 104.322 48.2713 104.518 48.388C104.714 48.5 104.861 48.6703 104.959 48.899C105.062 49.1277 105.113 49.4053 105.113 49.732V52H103.986V49.823C103.986 49.6737 103.965 49.55 103.923 49.452C103.881 49.354 103.818 49.2817 103.734 49.235C103.655 49.1837 103.554 49.158 103.433 49.158C103.335 49.158 103.244 49.1743 103.16 49.207C103.081 49.2397 103.011 49.284 102.95 49.34C102.894 49.396 102.85 49.4613 102.817 49.536C102.784 49.6107 102.768 49.6947 102.768 49.788V52H101.641V49.816C101.641 49.676 101.62 49.557 101.578 49.459C101.536 49.361 101.473 49.2863 101.389 49.235C101.305 49.1837 101.207 49.158 101.095 49.158C100.997 49.158 100.906 49.1743 100.822 49.207C100.743 49.2397 100.673 49.284 100.612 49.34C100.556 49.396 100.512 49.4613 100.479 49.536C100.446 49.6107 100.43 49.6923 100.43 49.781V52H99.303ZM108.115 52.063C107.803 52.063 107.523 51.9813 107.275 51.818C107.033 51.65 106.839 51.4213 106.694 51.132C106.55 50.838 106.477 50.5067 106.477 50.138C106.477 49.76 106.55 49.4263 106.694 49.137C106.839 48.8477 107.037 48.6213 107.289 48.458C107.541 48.29 107.828 48.206 108.15 48.206C108.328 48.206 108.489 48.2317 108.633 48.283C108.783 48.3343 108.913 48.4067 109.025 48.5C109.137 48.5887 109.233 48.6937 109.312 48.815C109.392 48.9317 109.45 49.0577 109.487 49.193L109.256 49.165V48.283H110.369V52H109.235V51.104L109.487 51.097C109.45 51.2277 109.389 51.3513 109.305 51.468C109.221 51.5847 109.119 51.6873 108.997 51.776C108.876 51.8647 108.741 51.9347 108.591 51.986C108.442 52.0373 108.283 52.063 108.115 52.063ZM108.423 51.118C108.596 51.118 108.745 51.0783 108.871 50.999C108.997 50.9197 109.095 50.8077 109.165 50.663C109.235 50.5137 109.27 50.3387 109.27 50.138C109.27 49.9373 109.235 49.7647 109.165 49.62C109.095 49.4707 108.997 49.3563 108.871 49.277C108.745 49.193 108.596 49.151 108.423 49.151C108.255 49.151 108.108 49.193 107.982 49.277C107.861 49.3563 107.765 49.4707 107.695 49.62C107.625 49.7647 107.59 49.9373 107.59 50.138C107.59 50.3387 107.625 50.5137 107.695 50.663C107.765 50.8077 107.861 50.9197 107.982 50.999C108.108 51.0783 108.255 51.118 108.423 51.118ZM113.136 50.908L112.723 50.068L114.459 48.283H115.936L113.136 50.908ZM112.058 52V46.82H113.178V52H112.058ZM114.578 52L113.269 50.306L114.06 49.69L115.901 52H114.578ZM118.753 52.07C118.343 52.07 117.986 51.9883 117.682 51.825C117.379 51.657 117.143 51.4307 116.975 51.146C116.807 50.8567 116.723 50.5277 116.723 50.159C116.723 49.8743 116.77 49.613 116.863 49.375C116.957 49.137 117.087 48.9317 117.255 48.759C117.423 48.5817 117.622 48.4463 117.85 48.353C118.084 48.255 118.338 48.206 118.613 48.206C118.875 48.206 119.113 48.2527 119.327 48.346C119.547 48.4393 119.736 48.57 119.894 48.738C120.053 48.906 120.174 49.1043 120.258 49.333C120.342 49.5617 120.38 49.8113 120.37 50.082L120.363 50.383H117.402L117.241 49.753H119.453L119.334 49.886V49.746C119.325 49.6293 119.288 49.5267 119.222 49.438C119.162 49.3447 119.08 49.2723 118.977 49.221C118.875 49.1697 118.758 49.144 118.627 49.144C118.445 49.144 118.289 49.1813 118.158 49.256C118.032 49.326 117.937 49.431 117.871 49.571C117.806 49.7063 117.773 49.8743 117.773 50.075C117.773 50.2803 117.815 50.46 117.899 50.614C117.988 50.7633 118.114 50.88 118.277 50.964C118.445 51.048 118.644 51.09 118.872 51.09C119.031 51.09 119.171 51.0667 119.292 51.02C119.418 50.9733 119.554 50.894 119.698 50.782L120.223 51.524C120.079 51.65 119.925 51.7527 119.761 51.832C119.598 51.9113 119.43 51.9697 119.257 52.007C119.089 52.049 118.921 52.07 118.753 52.07Z" fill="black"/>
<defs>
<clipPath id="clip0_93_286">
<rect width="28.125" height="27" fill="white" transform="translate(73.9779 7.5)"/>
</clipPath>
</defs>
</svg>
