<svg width="29" height="29" viewBox="0 0 29 29" fill="none" xmlns="http://www.w3.org/2000/svg">
<path d="M1 14.5C1 16.2728 1.34919 18.0283 2.02763 19.6662C2.70606 21.3041 3.70047 22.7923 4.95406 24.0459C6.20765 25.2995 7.69588 26.2939 9.33377 26.9724C10.9717 27.6508 12.7272 28 14.5 28C16.2728 28 18.0283 27.6508 19.6662 26.9724C21.3041 26.2939 22.7923 25.2995 24.0459 24.0459C25.2995 22.7923 26.2939 21.3041 26.9724 19.6662C27.6508 18.0283 28 16.2728 28 14.5C28 10.9196 26.5777 7.4858 24.0459 4.95406C21.5142 2.42232 18.0804 1 14.5 1C10.9196 1 7.4858 2.42232 4.95406 4.95406C2.42232 7.4858 1 10.9196 1 14.5Z" stroke="black" stroke-width="2" stroke-linecap="round" stroke-linejoin="round"/>
<path d="M14.5 6.99994V14.4999L19 18.9999" stroke="black" stroke-width="2" stroke-linecap="round" stroke-linejoin="round"/>
</svg>
