<svg width="38" height="38" viewBox="0 0 38 38" fill="none" xmlns="http://www.w3.org/2000/svg">
<path d="M9.01066 12.2293C8.98789 12.0762 9.0017 11.9205 9.05116 11.7725C9.10063 11.6246 9.18462 11.4879 9.29751 11.3715C9.41041 11.2551 9.5496 11.1618 9.7058 11.0977C9.86199 11.0337 10.0316 11.0003 10.2032 11H27.7955C27.9672 11.0004 28.1368 11.0337 28.2931 11.0977C28.4493 11.1618 28.5886 11.2551 28.7016 11.3715C28.8146 11.4878 28.8988 11.6245 28.9484 11.7724C28.9981 11.9204 29.0121 12.0761 28.9895 12.2293L28.9881 12.2353L28.7214 13.8047V13.806C28.6831 14.0379 28.5807 14.2575 28.4238 14.4447C28.2668 14.6318 28.0602 14.7806 27.8229 14.8773L26.2496 25.6693V25.6713C26.1444 26.4133 25.4533 27 24.603 27H13.3891C12.5373 27 11.8469 26.4133 11.7432 25.672V25.6693L11.5225 24.1593C10.5217 23.9793 9.79139 23.532 9.42399 22.782C9.00548 21.93 9.16696 20.8793 9.49065 19.8887C9.7425 19.122 10.1232 18.2993 10.5484 17.4813L10.1692 14.876C9.93167 14.7795 9.72494 14.6308 9.56795 14.4436C9.41096 14.2564 9.30873 14.0367 9.27066 13.8047L9.0114 12.238L9.01066 12.2293ZM10.5254 12.3333L10.7366 13.6087C10.7389 13.6248 10.7477 13.6396 10.7614 13.6503C10.775 13.661 10.7925 13.6668 10.8106 13.6667H27.1881C27.2162 13.6667 27.2496 13.6467 27.2555 13.6093L27.2562 13.606L27.4733 12.3333H10.5254ZM10.9417 20.1773C10.9317 20.2068 10.9218 20.2364 10.9121 20.266C10.6069 21.1993 10.5862 21.85 10.7788 22.2433C10.8603 22.41 11.0084 22.5827 11.3121 22.712L10.9417 20.1773ZM13.0298 24.2507L13.2128 25.504C13.2276 25.6147 13.3224 25.6667 13.3891 25.6667H24.6037C24.6704 25.6667 24.7644 25.6147 24.7793 25.504L24.78 25.5L26.3111 15H21.6875C21.8053 15.0153 21.9173 15.0559 22.014 15.1184C22.1107 15.1809 22.1893 15.2635 22.243 15.3591C22.2967 15.4548 22.324 15.5606 22.3226 15.6678C22.3212 15.7749 22.2911 15.8802 22.2349 15.9747C22.0341 16.3113 21.8386 16.644 21.646 16.9713C20.5164 18.892 19.4979 20.626 18.2846 21.8947C17.5594 22.6533 16.7424 23.2747 15.7565 23.6887C14.9446 24.0307 14.0454 24.2213 13.0298 24.2507ZM21.4764 15H11.681L12.8365 22.92C13.7358 22.9113 14.4817 22.7533 15.1291 22.4813C15.8779 22.166 16.5357 21.68 17.1616 21.0253C18.2564 19.88 19.1838 18.304 20.323 16.37C20.5179 16.0387 20.7193 15.6967 20.9282 15.3453C20.983 15.2531 21.0612 15.1737 21.1564 15.1137C21.2517 15.0537 21.3613 15.0148 21.4764 15Z" fill="black"/>
</svg>
