<svg width="38" height="38" viewBox="0 0 38 38" fill="none" xmlns="http://www.w3.org/2000/svg">
<path fill-rule="evenodd" clip-rule="evenodd" d="M9.01066 17.2293C8.98789 17.0762 9.0017 16.9205 9.05116 16.7725C9.10063 16.6246 9.18462 16.4879 9.29751 16.3715C9.41041 16.2551 9.5496 16.1618 9.7058 16.0977C9.86199 16.0337 10.0316 16.0003 10.2032 16H27.7955C27.9672 16.0004 28.1368 16.0337 28.2931 16.0977C28.4493 16.1618 28.5886 16.2551 28.7016 16.3715C28.8146 16.4878 28.8988 16.6245 28.9484 16.7724C28.9981 16.9204 29.0121 17.0761 28.9895 17.2293L28.7214 18.8047C28.6831 19.0366 28.5807 19.2575 28.4238 19.4447C28.2668 19.6318 28.0602 19.7806 27.8229 19.8773L26.2496 30.6693C26.1444 31.4113 25.4533 32 24.603 32H13.3891C12.5373 32 11.8469 31.4133 11.7432 30.672L11.5225 29.1593L11.3121 27.712L10.9417 25.1773L10.5484 22.4813L10.1692 19.876C9.93167 19.7795 9.72494 19.6308 9.56795 19.4436C9.41096 19.2564 9.30873 19.0367 9.27066 18.8047L9.01066 17.2293ZM10.5254 17.3333L10.7366 18.6087C10.7389 18.6248 10.7477 18.6396 10.7614 18.6503C10.775 18.661 10.7925 18.6668 10.8106 18.6667H27.1881C27.2162 18.6667 27.2496 18.6467 27.2555 18.6093L27.4733 17.3333H10.5254ZM13.0298 29.2507L13.2128 30.504C13.2276 30.6147 13.3224 30.6667 13.3891 30.6667H24.6037C24.6704 30.6667 24.7644 30.6147 24.7793 30.504L26.3111 20H21.6875H21.4764H11.681L12.8365 27.92L13.0298 29.2507Z" fill="black"/>
<path d="M22 21C22 21 22 6 18.9105 6C17.0165 6 16.2836 11.6372 16 16" stroke="black" stroke-width="1.5" stroke-linecap="round"/>
</svg>
