<svg width="38" height="38" viewBox="0 0 38 38" fill="none" xmlns="http://www.w3.org/2000/svg">
<path d="M11.0085 13.0757C10.9903 12.9417 11.0014 12.8054 11.0409 12.676C11.0805 12.5465 11.1477 12.4269 11.238 12.3251C11.3283 12.2232 11.4397 12.1416 11.5646 12.0855C11.6896 12.0295 11.8253 12.0003 11.9626 12H26.0364C26.1738 12.0003 26.3095 12.0295 26.4345 12.0855C26.5595 12.1416 26.6709 12.2232 26.7613 12.325C26.8517 12.4268 26.919 12.5464 26.9587 12.6759C26.9985 12.8053 27.0097 12.9416 26.9916 13.0757L26.9905 13.0809L26.7771 14.4541V14.4552C26.7465 14.6582 26.6646 14.8503 26.539 15.0141C26.4135 15.1779 26.2482 15.308 26.0583 15.3927L24.7997 24.8357V24.8374C24.7155 25.4867 24.1627 26 23.4824 26H14.5113C13.8298 26 13.2775 25.4867 13.1946 24.838V24.8357L13.018 23.5144C12.2174 23.3569 11.6331 22.9655 11.3392 22.3092C11.0044 21.5637 11.1336 20.6444 11.3925 19.7776C11.594 19.1067 11.8986 18.3869 12.2387 17.6712L11.9353 15.3915C11.7453 15.307 11.58 15.1769 11.4544 15.0131C11.3288 14.8493 11.247 14.6571 11.2165 14.4541L11.0091 13.0833L11.0085 13.0757ZM12.2204 13.1667L12.3892 14.2826C12.3911 14.2967 12.3982 14.3097 12.4091 14.319C12.42 14.3284 12.434 14.3335 12.4485 14.3333H25.5505C25.573 14.3333 25.5997 14.3158 25.6044 14.2832L25.605 14.2803L25.7786 13.1667H12.2204ZM12.5534 20.0302C12.5454 20.056 12.5375 20.0818 12.5297 20.1077C12.2855 20.9244 12.269 21.4937 12.423 21.8379C12.4882 21.9837 12.6067 22.1348 12.8497 22.248L12.5534 20.0302ZM14.2239 23.5943L14.3702 24.691C14.3821 24.7878 14.4579 24.8333 14.5113 24.8333H23.483C23.5363 24.8333 23.6116 24.7878 23.6234 24.691L23.624 24.6875L24.8489 15.5H21.15C21.2442 15.5134 21.3339 15.5489 21.4112 15.6036C21.4886 15.6583 21.5514 15.7305 21.5944 15.8142C21.6374 15.8979 21.6592 15.9906 21.6581 16.0843C21.6569 16.1781 21.6329 16.2702 21.5879 16.3528C21.4273 16.6474 21.2709 16.9385 21.1168 17.2249C20.2131 18.9055 19.3983 20.4227 18.4277 21.5328C17.8475 22.1967 17.1939 22.7403 16.4052 23.1026C15.7557 23.4018 15.0363 23.5687 14.2239 23.5943ZM20.9811 15.5H13.1448L14.0692 22.43C14.7886 22.4224 15.3853 22.2842 15.9033 22.0462C16.5024 21.7702 17.0286 21.345 17.5293 20.7722C18.4051 19.77 19.147 18.391 20.0584 16.6988C20.2143 16.4088 20.3755 16.1096 20.5426 15.8022C20.5864 15.7214 20.649 15.652 20.7252 15.5995C20.8013 15.547 20.889 15.5129 20.9811 15.5Z" fill="black"/>
</svg>
