<svg width="38" height="38" viewBox="0 0 38 38" fill="none" xmlns="http://www.w3.org/2000/svg">
<path d="M9.01066 17.8936C8.98789 17.737 9.0017 17.5778 9.05116 17.4265C9.10063 17.2752 9.18462 17.1353 9.29751 17.0163C9.41041 16.8973 9.5496 16.8018 9.7058 16.7363C9.86199 16.6708 10.0316 16.6367 10.2032 16.6364H27.7955C27.9672 16.6367 28.1368 16.6708 28.2931 16.7363C28.4493 16.8018 28.5886 16.8973 28.7016 17.0163C28.8146 17.1353 28.8988 17.2751 28.9484 17.4264C28.9981 17.5777 29.0121 17.737 28.9895 17.8936L28.9881 17.8998L28.7214 19.5048V19.5061C28.6831 19.7433 28.5807 19.9679 28.4238 20.1593C28.2668 20.3507 28.0602 20.5029 27.8229 20.6018L26.2496 31.6391V31.6411C26.1444 32.4 25.4533 33 24.603 33H13.3891C12.5373 33 11.8469 32.4 11.7432 31.6418V31.6391L11.5225 30.0948C10.5217 29.9107 9.79139 29.4532 9.42399 28.6861C9.00548 27.8148 9.16696 26.7402 9.49065 25.727C9.7425 24.943 10.1232 24.1016 10.5484 23.265L10.1692 20.6005C9.93167 20.5017 9.72494 20.3496 9.56795 20.1582C9.41096 19.9667 9.30873 19.7421 9.27066 19.5048L9.0114 17.9025L9.01066 17.8936ZM10.5254 18L10.7366 19.3043C10.7389 19.3208 10.7477 19.336 10.7614 19.3469C10.775 19.3578 10.7925 19.3638 10.8106 19.3636H27.1881C27.2162 19.3636 27.2496 19.3432 27.2555 19.305L27.2562 19.3016L27.4733 18H10.5254ZM10.9417 26.0223C10.9317 26.0525 10.9218 26.0827 10.9121 26.113C10.6069 27.0675 10.5862 27.733 10.7788 28.1352C10.8603 28.3057 11.0084 28.4823 11.3121 28.6145L10.9417 26.0223ZM13.0298 30.1882L13.2128 31.47C13.2276 31.5832 13.3224 31.6364 13.3891 31.6364H24.6037C24.6704 31.6364 24.7644 31.5832 24.7793 31.47L24.78 31.4659L26.3111 20.7273H21.6875C21.8053 20.7429 21.9173 20.7844 22.014 20.8484C22.1107 20.9123 22.1893 20.9967 22.243 21.0946C22.2967 21.1924 22.324 21.3007 22.3226 21.4102C22.3212 21.5198 22.2911 21.6275 22.2349 21.7241C22.0341 22.0684 21.8386 22.4086 21.646 22.7434C20.5164 24.7077 19.4979 26.4811 18.2846 27.7786C17.5594 28.5545 16.7424 29.19 15.7565 29.6134C14.9446 29.9632 14.0454 30.1582 13.0298 30.1882ZM21.4764 20.7273H11.681L12.8365 28.8273C13.7358 28.8184 14.4817 28.6568 15.1291 28.3786C15.8779 28.0561 16.5357 27.5591 17.1616 26.8895C18.2564 25.7182 19.1838 24.1064 20.323 22.1284C20.5179 21.7895 20.7193 21.4398 20.9282 21.0805C20.983 20.9861 21.0612 20.9049 21.1564 20.8436C21.2517 20.7822 21.3613 20.7424 21.4764 20.7273Z" fill="black"/>
<path d="M14.26 6.15264C14.417 6.06471 14.6099 6.01193 14.8113 6.00179C15.0127 5.99166 15.2123 6.02468 15.3817 6.09617C18.6503 7.47679 20.4093 9.22351 21.3151 11.1461C21.5393 11.6219 21.7104 12.1068 21.8392 12.5975C22.8624 11.4746 24.4677 10.584 26.8625 9.94141C27.0314 9.89616 27.2147 9.88376 27.3913 9.90565C27.5679 9.92754 27.7307 9.98282 27.861 10.0652C27.9914 10.1475 28.084 10.2535 28.1282 10.3711C28.1724 10.4888 28.1665 10.6131 28.1111 10.7301L27.9248 11.1221C26.5251 14.0612 26.096 14.9615 26.0284 17.0347C26.0228 17.2069 25.9164 17.372 25.7327 17.4937C25.5489 17.6154 25.3028 17.6838 25.0485 17.6838C24.7942 17.6838 24.5526 17.6154 24.3767 17.4937C24.2009 17.372 24.1053 17.2069 24.1109 17.0347C24.1755 15.0517 24.5746 13.984 25.5944 11.8147C24.5029 12.2976 23.7761 12.8585 23.2803 13.4796C22.5157 14.4364 22.2397 15.61 22.1933 17.0347C22.1877 17.2069 22.0813 17.372 21.8975 17.4937C21.7138 17.6154 21.4677 17.6838 21.2134 17.6838C20.9591 17.6838 20.7174 17.6154 20.5416 17.4937C20.3658 17.372 20.2701 17.2069 20.2757 17.0347C20.339 15.0926 20.2747 13.2395 19.4865 11.5648C18.9573 10.4425 18.098 9.38968 16.6944 8.44784C17.5878 10.9534 17.5187 13.3706 17.4047 16.8692L17.3994 17.0347C17.3937 17.2069 17.2874 17.372 17.1036 17.4937C16.9198 17.6154 16.6737 17.6838 16.4194 17.6838C16.1651 17.6838 15.9235 17.6154 15.7477 17.4937C15.5718 17.372 15.4762 17.2069 15.4818 17.0347C15.5302 15.5483 15.5646 14.1975 15.0582 13.0558C14.767 12.3982 14.2934 11.8095 13.501 11.3201C14.3165 13.3667 14.5931 14.8817 14.523 17.0347C14.5174 17.2069 14.411 17.372 14.2272 17.4937C14.0434 17.6154 13.7973 17.6838 13.5431 17.6838C13.2888 17.6838 13.0471 17.6154 12.8713 17.4937C12.6954 17.372 12.5998 17.2069 12.6054 17.0347C12.6871 14.5266 12.2851 12.9746 10.9626 10.0998C10.9088 9.98239 10.906 9.85628 10.9546 9.73632C11.0032 9.61637 11.1012 9.50755 11.2369 9.4227C11.3727 9.33785 11.5406 9.2805 11.7209 9.2574C11.9012 9.2343 12.0863 9.24641 12.2545 9.29232C13.5802 9.65386 14.5808 10.1368 15.3293 10.7073C15.1153 9.39764 14.6564 8.11521 13.9636 6.89066C13.8927 6.76389 13.8831 6.62432 13.9363 6.49181C13.9895 6.35931 14.1028 6.24062 14.26 6.15264Z" fill="black"/>
</svg>
