<svg width="38" height="38" viewBox="0 0 38 38" fill="none" xmlns="http://www.w3.org/2000/svg">
<path fill-rule="evenodd" clip-rule="evenodd" d="M9.01066 18.2293C8.98789 18.0762 9.0017 17.9205 9.05116 17.7725C9.10063 17.6246 9.18462 17.4879 9.29751 17.3715C9.41041 17.2551 9.5496 17.1618 9.7058 17.0977C9.86199 17.0337 10.0316 17.0003 10.2032 17H27.7955C27.9672 17.0004 28.1368 17.0337 28.2931 17.0977C28.4493 17.1618 28.5886 17.2551 28.7016 17.3715C28.8146 17.4878 28.8988 17.6245 28.9484 17.7724C28.9981 17.9204 29.0121 18.0761 28.9895 18.2293L28.7214 19.8047C28.6831 20.0366 28.5807 20.2575 28.4238 20.4447C28.2668 20.6318 28.0602 20.7806 27.8229 20.8773L26.2496 31.6693C26.1444 32.4113 25.4533 33 24.603 33H13.3891C12.5373 33 11.8469 32.4133 11.7432 31.672L11.5225 30.1593L11.3121 28.712L10.9417 26.1773L10.5484 23.4813L10.1692 20.876C9.93167 20.7795 9.72494 20.6308 9.56795 20.4436C9.41096 20.2564 9.30873 20.0367 9.27066 19.8047L9.01066 18.2293ZM10.5254 18.3333L10.7366 19.6087C10.7389 19.6248 10.7477 19.6396 10.7614 19.6503C10.775 19.661 10.7925 19.6668 10.8106 19.6667H27.1881C27.2162 19.6667 27.2496 19.6467 27.2555 19.6093L27.4733 18.3333H10.5254ZM13.0298 30.2507L13.2128 31.504C13.2276 31.6147 13.3224 31.6667 13.3891 31.6667H24.6037C24.6704 31.6667 24.7644 31.6147 24.7793 31.504L26.3111 21H21.6875H21.4764H11.681L12.8365 28.92L13.0298 30.2507Z" fill="black"/>
<path d="M24.6678 9.11758C24.5042 9.04985 24.3028 9.00919 24.0921 9.00138C23.8814 8.99357 23.6722 9.01901 23.4942 9.07408C20.0599 10.1376 18.2022 11.4831 17.236 12.964C16.9968 13.3305 16.813 13.704 16.6736 14.082C15.6133 13.217 13.9415 12.531 11.4408 12.0361C11.2645 12.0012 11.0728 11.9916 10.8878 12.0085C10.7027 12.0254 10.5318 12.0679 10.3946 12.1314C10.2574 12.1948 10.1594 12.2765 10.112 12.3671C10.0646 12.4577 10.0696 12.5535 10.1265 12.6435L10.3178 12.9455C11.7551 15.2095 12.1957 15.903 12.2468 17.5C12.251 17.6326 12.3608 17.7598 12.552 17.8536C12.7432 17.9473 13.0002 18 13.2664 18C13.5325 18 13.7861 17.9473 13.9713 17.8536C14.1565 17.7598 14.2582 17.6326 14.2539 17.5C14.2051 15.9725 13.7974 15.15 12.7505 13.479C13.8884 13.851 14.6438 14.283 15.1569 14.7615C15.9482 15.4985 16.2259 16.4025 16.261 17.5C16.2653 17.6326 16.3751 17.7598 16.5663 17.8536C16.7575 17.9473 17.0144 18 17.2806 18C17.5467 18 17.8003 17.9473 17.9855 17.8536C18.1707 17.7598 18.2724 17.6326 18.2682 17.5C18.2203 16.004 18.3051 14.5765 19.146 13.2865C19.7105 12.422 20.6198 11.6111 22.098 10.8856C21.1391 12.8155 21.1886 14.6775 21.2748 17.3725L21.2788 17.5C21.2831 17.6326 21.3929 17.7598 21.5841 17.8536C21.7753 17.9473 22.0322 18 22.2984 18C22.5645 18 22.8181 17.9473 23.0033 17.8536C23.1885 17.7598 23.2902 17.6326 23.2859 17.5C23.2493 16.355 23.2261 15.3145 23.767 14.435C24.078 13.9285 24.5793 13.475 25.4132 13.098C24.5404 14.6745 24.2365 15.8415 24.2895 17.5C24.2937 17.6326 24.4035 17.7598 24.5947 17.8536C24.7859 17.9473 25.0429 18 25.3091 18C25.5752 18 25.8288 17.9473 26.014 17.8536C26.1992 17.7598 26.3009 17.6326 26.2966 17.5C26.2348 15.568 26.6703 14.3725 28.0817 12.1581C28.1392 12.0676 28.1433 11.9705 28.0935 11.8781C28.0438 11.7857 27.9423 11.7019 27.801 11.6365C27.6597 11.5711 27.4845 11.527 27.296 11.5092C27.1075 11.4914 26.9136 11.5007 26.7371 11.5361C25.3461 11.8146 24.2942 12.1866 23.5054 12.626C23.7418 11.6172 24.2342 10.6293 24.9709 9.68607C25.0464 9.58842 25.0577 9.48091 25.0033 9.37884C24.9488 9.27677 24.8314 9.18535 24.6678 9.11758Z" fill="black"/>
<path d="M22 22C22 22 22 7 18.9105 7C17.0165 7 16.2836 12.6372 16 17" stroke="black" stroke-width="1.5" stroke-linecap="round"/>
</svg>
