<svg width="38" height="38" viewBox="0 0 38 38" fill="none" xmlns="http://www.w3.org/2000/svg">
<path d="M11.0085 17.6911C10.9903 17.5635 11.0014 17.4337 11.0409 17.3105C11.0805 17.1872 11.1477 17.0732 11.238 16.9763C11.3283 16.8793 11.4397 16.8015 11.5646 16.7481C11.6896 16.6947 11.8253 16.667 11.9626 16.6667H26.0364C26.1738 16.667 26.3095 16.6947 26.4345 16.7481C26.5595 16.8015 26.6709 16.8793 26.7613 16.9762C26.8517 17.0732 26.919 17.1871 26.9587 17.3104C26.9985 17.4336 27.0097 17.5634 26.9916 17.6911L26.9905 17.6961L26.7771 19.0039V19.005C26.7465 19.1983 26.6646 19.3813 26.539 19.5372C26.4135 19.6932 26.2482 19.8172 26.0583 19.8978L24.7997 28.8911V28.8928C24.7155 29.5111 24.1627 30 23.4824 30H14.5113C13.8298 30 13.2775 29.5111 13.1946 28.8933V28.8911L13.018 27.6328C12.2174 27.4828 11.6331 27.11 11.3392 26.485C11.0044 25.775 11.1336 24.8994 11.3925 24.0739C11.594 23.435 11.8986 22.7494 12.2387 22.0678L11.9353 19.8967C11.7453 19.8162 11.58 19.6923 11.4544 19.5363C11.3288 19.3803 11.247 19.1972 11.2165 19.0039L11.0091 17.6983L11.0085 17.6911ZM12.2204 17.7778L12.3892 18.8406C12.3911 18.854 12.3982 18.8663 12.4091 18.8752C12.42 18.8842 12.434 18.889 12.4485 18.8889H25.5505C25.573 18.8889 25.5997 18.8722 25.6044 18.8411L25.605 18.8383L25.7786 17.7778H12.2204ZM12.5534 24.3144C12.5454 24.339 12.5375 24.3637 12.5297 24.3883C12.2855 25.1661 12.269 25.7083 12.423 26.0361C12.4882 26.175 12.6067 26.3189 12.8497 26.4267L12.5534 24.3144ZM14.2239 27.7089L14.3702 28.7533C14.3821 28.8456 14.4579 28.8889 14.5113 28.8889H23.483C23.5363 28.8889 23.6116 28.8456 23.6234 28.7533L23.624 28.75L24.8489 20H21.15C21.2442 20.0127 21.3339 20.0466 21.4112 20.0987C21.4886 20.1508 21.5514 20.2196 21.5944 20.2993C21.6374 20.379 21.6592 20.4672 21.6581 20.5565C21.6569 20.6458 21.6329 20.7335 21.5879 20.8122C21.4273 21.0928 21.2709 21.37 21.1168 21.6428C20.2131 23.2433 19.3983 24.6883 18.4277 25.7456C17.8475 26.3778 17.1939 26.8956 16.4052 27.2406C15.7557 27.5256 15.0363 27.6844 14.2239 27.7089ZM20.9811 20H13.1448L14.0692 26.6C14.7886 26.5928 15.3853 26.4611 15.9033 26.2344C16.5024 25.9717 17.0286 25.5667 17.5293 25.0211C18.4051 24.0667 19.147 22.7533 20.0584 21.1417C20.2143 20.8656 20.3755 20.5806 20.5426 20.2878C20.5864 20.2109 20.649 20.1448 20.7252 20.0948C20.8013 20.0448 20.889 20.0123 20.9811 20Z" fill="black"/>
<path d="M15.208 8.12437C15.3336 8.05273 15.488 8.00972 15.6491 8.00146C15.8101 7.9932 15.9698 8.02011 16.1053 8.07836C18.7202 9.20331 20.1275 10.6266 20.8521 12.1931C21.0314 12.5808 21.1684 12.9759 21.2714 13.3758C22.0899 12.4608 23.3741 11.7351 25.29 11.2115C25.4251 11.1746 25.5717 11.1645 25.713 11.1824C25.8543 11.2002 25.9845 11.2453 26.0888 11.3123C26.1931 11.3794 26.2672 11.4658 26.3026 11.5617C26.338 11.6575 26.3332 11.7589 26.2889 11.8541L26.1398 12.1736C25.0201 14.5684 24.6768 15.302 24.6228 16.9913C24.6183 17.1315 24.5332 17.2661 24.3861 17.3653C24.2391 17.4644 24.0422 17.5202 23.8388 17.5202C23.6354 17.5202 23.4421 17.4644 23.3014 17.3653C23.1607 17.2661 23.0842 17.1315 23.0887 16.9913C23.1404 15.3755 23.4597 14.5055 24.2755 12.7379C23.4023 13.1314 22.8209 13.5884 22.4243 14.0945C21.8126 14.8741 21.5918 15.8303 21.5546 16.9913C21.5502 17.1315 21.465 17.2661 21.318 17.3653C21.171 17.4644 20.9741 17.5202 20.7707 17.5202C20.5673 17.5202 20.3739 17.4644 20.2333 17.3653C20.0926 17.2661 20.0161 17.1315 20.0206 16.9913C20.0712 15.4088 20.0198 13.8988 19.3892 12.5343C18.9659 11.6198 18.2784 10.762 17.1555 9.99454C17.8703 12.0361 17.815 14.0057 17.7238 16.8564L17.7195 16.9913C17.715 17.1315 17.6299 17.2661 17.4829 17.3653C17.3359 17.4644 17.139 17.5202 16.9355 17.5202C16.7321 17.5202 16.5388 17.4644 16.3981 17.3653C16.2574 17.2661 16.1809 17.1315 16.1854 16.9913C16.2242 15.7801 16.2517 14.6795 15.8465 13.7492C15.6136 13.2134 15.2347 12.7337 14.6008 12.3349C15.2532 14.0025 15.4745 15.2369 15.4184 16.9913C15.4139 17.1315 15.3288 17.2661 15.1818 17.3653C15.0348 17.4644 14.8379 17.5202 14.6345 17.5202C14.431 17.5202 14.2377 17.4644 14.097 17.3653C13.9564 17.2661 13.8798 17.1315 13.8843 16.9913C13.9497 14.9476 13.6281 13.683 12.5701 11.3406C12.527 11.2449 12.5248 11.1422 12.5637 11.0444C12.6026 10.9467 12.6809 10.858 12.7895 10.7889C12.8982 10.7197 13.0325 10.673 13.1767 10.6542C13.3209 10.6354 13.469 10.6452 13.6036 10.6826C14.6642 10.9772 15.4647 11.3707 16.0634 11.8356C15.8922 10.7684 15.5251 9.7235 14.9709 8.72572C14.9141 8.62243 14.9065 8.50871 14.9491 8.40074C14.9916 8.29277 15.0822 8.19606 15.208 8.12437Z" fill="black"/>
</svg>
