<svg width="27" height="27" viewBox="0 0 27 27" fill="none" xmlns="http://www.w3.org/2000/svg">
<path d="M24.5644 7.46447L19.9571 5.09737C19.834 5.0335 19.6956 5 19.555 5C19.4143 5 19.276 5.0335 19.1529 5.09737L9.4356 9.4563C9.30403 9.5239 9.19419 9.62343 9.11757 9.74449C9.04094 9.86556 9.00034 10.0037 9 10.1446V14.8463C9.00034 14.9871 9.04094 15.1253 9.11757 15.2464C9.19419 15.3674 9.30403 15.467 9.4356 15.5346L14.0429 17.9026C14.166 17.9665 14.3044 18 14.445 18C14.5857 18 14.724 17.9665 14.8471 17.9026L24.5644 13.5437C24.696 13.4761 24.8058 13.3766 24.8824 13.2555C24.9591 13.1344 24.9997 12.9963 25 12.8554V8.15419C24.9999 8.01311 24.9595 7.87464 24.8828 7.75329C24.8062 7.63195 24.6962 7.53219 24.5644 7.46447ZM19.555 5.78562L23.7613 7.9487L14.445 12.1026L10.2387 9.93955L19.555 5.78562ZM9.8377 10.6278L14.0262 12.7801V16.9976L9.8377 14.8468V10.6278ZM14.8639 16.9976V12.782L24.1623 8.63695V12.854L14.8639 16.9976Z" fill="black"/>
<path d="M12.5318 16.7254L7.57954 14.1077C7.44722 14.037 7.29852 14 7.14735 14C6.99617 14 6.84747 14.037 6.71515 14.1077L2.46821 16.3501C2.32679 16.4249 2.20873 16.5349 2.12637 16.6688C2.04401 16.8027 2.00037 16.9555 2 17.1112V18.5124C2.00037 18.6682 2.04401 18.821 2.12637 18.9549C2.20873 19.0887 2.32679 19.1988 2.46821 19.2736L7.42046 21.8923C7.55278 21.963 7.70148 22 7.85265 22C8.00383 22 8.15253 21.963 8.28485 21.8923L12.5318 19.6499C12.6732 19.5751 12.7913 19.4651 12.8736 19.3312C12.956 19.1973 12.9996 19.0445 13 18.8888V17.4881C12.9999 17.3321 12.9564 17.179 12.8741 17.0448C12.7917 16.9106 12.6735 16.8002 12.5318 16.7254ZM7.14735 14.8688L11.6685 17.2609L7.85265 19.2766L3.33148 16.8845L7.14735 14.8688ZM2.90041 17.6456L7.40245 20.0257V20.8915L2.90041 18.513V17.6456ZM8.30286 20.8915V20.0279L12.0996 18.022V18.8871L8.30286 20.8915Z" fill="black"/>
</svg>
