<svg width="27" height="27" viewBox="0 0 27 27" fill="none" xmlns="http://www.w3.org/2000/svg">
<g clip-path="url(#clip0_52_184)">
<g clip-path="url(#clip1_52_184)">
<path d="M3.76654 12.1995H21.6429M16.0106 5.02588L15.8809 4.99707L3.99702 11.9978C3.89359 12.0523 3.80605 12.1328 3.74294 12.2312C3.67983 12.3297 3.6433 12.4428 3.6369 12.5596V22.2252C3.6369 22.4162 3.71278 22.5994 3.84785 22.7344C3.98293 22.8695 4.16612 22.9454 4.35714 22.9454H21.6429C21.8339 22.9454 22.0171 22.8695 22.1521 22.7344C22.2872 22.5994 22.3631 22.4162 22.3631 22.2252V12.1418C22.1414 10.4549 21.4169 8.87383 20.2838 7.60457C19.1507 6.33532 17.6617 5.43674 16.0106 5.02588Z" stroke="black" stroke-width="2.14286" stroke-linecap="round" stroke-linejoin="round"/>
<path d="M3.6369 18.8688L3.75214 18.768C4.01896 18.4958 4.33714 18.2792 4.68826 18.1309C5.03938 17.9825 5.41645 17.9053 5.79762 17.9037C6.56169 17.9037 7.29447 18.2072 7.83476 18.7475C8.37504 19.2878 8.67857 20.0206 8.67857 20.7847C8.67535 21.5475 8.36971 22.2779 7.82869 22.8157M15.8809 19.4018C16.454 19.4018 17.0036 19.1742 17.4088 18.769C17.814 18.3637 18.0417 17.8142 18.0417 17.2411C18.0417 16.668 17.814 16.1185 17.4088 15.7132C17.0036 15.308 16.454 15.0804 15.8809 15.0804C15.3079 15.0804 14.7583 15.308 14.3531 15.7132C13.9479 16.1185 13.7202 16.668 13.7202 17.2411C13.7202 17.8142 13.9479 18.3637 14.3531 18.769C14.7583 19.1742 15.3079 19.4018 15.8809 19.4018Z" stroke="black" stroke-width="2.14286" stroke-linecap="round" stroke-linejoin="round"/>
</g>
</g>
<defs>
<clipPath id="clip0_52_184">
<rect width="22" height="22" fill="white" transform="translate(2 3)"/>
</clipPath>
<clipPath id="clip1_52_184">
<rect width="20.1667" height="20.1667" fill="white" transform="translate(2.91666 3.91669)"/>
</clipPath>
</defs>
</svg>
