<svg width="27" height="27" viewBox="0 0 27 27" fill="none" xmlns="http://www.w3.org/2000/svg">
<g clip-path="url(#clip0_52_177)">
<path d="M11.4986 2.81306C11.9408 2.2275 12.6259 1.6875 13.5 1.6875C14.3741 1.6875 15.0592 2.2275 15.5014 2.81306C15.9553 3.41213 16.2607 4.185 16.362 4.95113C16.4633 5.7105 16.3789 6.57113 15.9114 7.27144C15.4136 8.01562 14.5783 8.4375 13.5 8.4375C12.42 8.4375 11.5864 8.01562 11.0886 7.27144C10.6228 6.56944 10.5367 5.70881 10.638 4.95113C10.7393 4.185 11.0447 3.41213 11.4986 2.81306ZM12.4942 6.33488C12.6292 6.53737 12.8925 6.75 13.5 6.75C14.1075 6.75 14.3707 6.53906 14.5057 6.33488C14.6728 6.08681 14.7555 5.68181 14.688 5.17387C14.6247 4.68902 14.4421 4.22746 14.1564 3.83063C13.8814 3.46781 13.6384 3.375 13.5 3.375C13.3616 3.375 13.1186 3.46781 12.8436 3.83063C12.5579 4.22746 12.3753 4.68902 12.312 5.17387C12.2445 5.68012 12.3289 6.08512 12.4942 6.33488ZM3.375 13.5C3.375 12.6049 3.73058 11.7464 4.36351 11.1135C4.99645 10.4806 5.85489 10.125 6.75 10.125H20.25C21.1451 10.125 22.0035 10.4806 22.6365 11.1135C23.2694 11.7464 23.625 12.6049 23.625 13.5V21.9375H24.4688C24.6925 21.9375 24.9071 22.0264 25.0654 22.1846C25.2236 22.3429 25.3125 22.5575 25.3125 22.7812C25.3125 23.005 25.2236 23.2196 25.0654 23.3779C24.9071 23.5361 24.6925 23.625 24.4688 23.625H2.53125C2.30747 23.625 2.09286 23.5361 1.93463 23.3779C1.77639 23.2196 1.6875 23.005 1.6875 22.7812C1.6875 22.5575 1.77639 22.3429 1.93463 22.1846C2.09286 22.0264 2.30747 21.9375 2.53125 21.9375H3.375V13.5ZM5.0625 21.9375H21.9375V16.9088C21.7856 17.0488 21.6287 17.1923 21.465 17.3374C20.925 17.8166 20.3091 18.3161 19.6948 18.6975C19.1143 19.0603 18.4072 19.4062 17.7188 19.4062C16.4902 19.4062 15.7073 18.5456 15.1959 17.982C15.1612 17.9442 15.1263 17.9065 15.0913 17.8689C14.4922 17.2176 14.1041 16.875 13.5 16.875C12.8959 16.875 12.5078 17.2176 11.9087 17.8689L11.8041 17.982C11.2927 18.5456 10.5098 19.4062 9.28125 19.4062C8.61637 19.4062 7.91944 19.0519 7.3575 18.6958C6.73471 18.2892 6.14301 17.8368 5.58731 17.3424C5.41023 17.1873 5.23528 17.0298 5.0625 16.8699V21.9375ZM5.0625 14.5125C5.58646 15.0534 6.13196 15.573 6.69769 16.0701C7.21406 16.5206 7.75913 16.9543 8.25694 17.2682C8.79694 17.6091 9.13613 17.7188 9.28125 17.7188C9.71663 17.7188 10.0103 17.4386 10.6667 16.7248L10.6718 16.7198C11.2387 16.1055 12.0825 15.1875 13.5 15.1875C14.9175 15.1875 15.7612 16.1055 16.3282 16.7198L16.3333 16.7248C16.9914 17.4386 17.2834 17.7188 17.7188 17.7188C17.9044 17.7188 18.2689 17.6006 18.8004 17.2665C19.3467 16.9113 19.8636 16.5129 20.3462 16.0751C20.9001 15.5822 21.4311 15.0642 21.9375 14.5226V13.5C21.9375 13.0524 21.7597 12.6232 21.4432 12.3068C21.1268 11.9903 20.6976 11.8125 20.25 11.8125H6.75C6.30245 11.8125 5.87322 11.9903 5.55676 12.3068C5.24029 12.6232 5.0625 13.0524 5.0625 13.5V14.5125Z" fill="black"/>
</g>
<defs>
<clipPath id="clip0_52_177">
<rect width="27" height="27" fill="white"/>
</clipPath>
</defs>
</svg>
