<svg width="27" height="27" viewBox="0 0 27 27" fill="none" xmlns="http://www.w3.org/2000/svg">
<path d="M18.1617 7.44501C18.008 6.45152 17.504 5.54579 16.7407 4.89153C15.9774 4.23726 15.0053 3.87762 14 3.87762C12.9947 3.87762 12.0226 4.23726 11.2593 4.89153C10.496 5.54579 9.99202 6.45152 9.83834 7.44501C9.23287 7.53411 8.67305 7.81847 8.24398 8.25486C7.81491 8.69125 7.54007 9.2558 7.46122 9.86269C7.38238 10.4696 7.50385 11.0856 7.80717 11.6172C8.11049 12.1487 8.57906 12.5667 9.14167 12.8075L12.735 21.2867C12.8407 21.5347 13.0169 21.7462 13.2418 21.8949C13.4667 22.0435 13.7304 22.1228 14 22.1228C14.2696 22.1228 14.5333 22.0435 14.7582 21.8949C14.9831 21.7462 15.1593 21.5347 15.265 21.2867L18.8583 12.7983C19.4211 12.5587 19.89 12.1416 20.1936 11.6107C20.4972 11.0797 20.6188 10.464 20.5398 9.85752C20.4609 9.25101 20.1858 8.68696 19.7564 8.25139C19.327 7.81581 18.767 7.53263 18.1617 7.44501ZM14.4217 20.9292C14.3864 21.0119 14.3277 21.0824 14.2527 21.1319C14.1778 21.1815 14.0899 21.2079 14 21.2079C13.9101 21.2079 13.8222 21.1815 13.7473 21.1319C13.6723 21.0824 13.6136 21.0119 13.5783 20.9292L10.2325 13.0275H17.7675L14.4217 20.9292ZM17.7583 12.1108H10.2417C9.99369 12.1102 9.74826 12.0608 9.51938 11.9653C9.29051 11.8699 9.08268 11.7303 8.90776 11.5545C8.73284 11.3787 8.59425 11.1702 8.49991 10.9409C8.40556 10.7116 8.35732 10.4659 8.35792 10.2179C8.35852 9.96995 8.40796 9.72451 8.50341 9.49564C8.59887 9.26677 8.73847 9.05894 8.91424 8.88401C9.09001 8.70909 9.29852 8.5705 9.52785 8.47616C9.75719 8.38182 10.0029 8.33357 10.2508 8.33418C10.3693 8.33427 10.4832 8.28851 10.5686 8.20648C10.6541 8.12445 10.7044 8.01253 10.7092 7.89418C10.7712 7.06382 11.1448 6.28761 11.7551 5.72118C12.3655 5.15475 13.1673 4.83997 14 4.83997C14.8327 4.83997 15.6346 5.15475 16.2449 5.72118C16.8552 6.28761 17.2288 7.06382 17.2908 7.89418C17.297 8.01365 17.349 8.12613 17.4362 8.20813C17.5233 8.29012 17.6387 8.33528 17.7583 8.33418C18.2592 8.33418 18.7395 8.53312 19.0936 8.88726C19.4477 9.24139 19.6467 9.72169 19.6467 10.2225C19.6467 10.7233 19.4477 11.2036 19.0936 11.5578C18.7395 11.9119 18.2592 12.1108 17.7583 12.1108Z" fill="black"/>
<path d="M18.4384 6.9105C18.2744 5.82146 17.7368 4.82862 16.9227 4.11142C16.1086 3.39423 15.0717 3 13.9994 3C12.9271 3 11.8902 3.39423 11.0761 4.11142C10.262 4.82862 9.7244 5.82146 9.56047 6.9105C8.91466 7.00817 8.31754 7.31988 7.85989 7.79824C7.40223 8.2766 7.10908 8.89545 7.02498 9.56072C6.94088 10.226 7.07044 10.9013 7.39397 11.4839C7.7175 12.0666 8.2173 12.5248 8.81739 12.7888L12.6501 22.0835C12.7628 22.3554 12.9508 22.5872 13.1907 22.7502C13.4306 22.9131 13.7119 23 13.9994 23C14.287 23 14.5682 22.9131 14.8081 22.7502C15.048 22.5872 15.236 22.3554 15.3487 22.0835L19.1815 12.7787C19.7817 12.5161 20.2818 12.0588 20.6057 11.4768C20.9295 10.8948 21.0592 10.2199 20.975 9.55505C20.8908 8.8902 20.5973 8.2719 20.1394 7.79443C19.6814 7.31697 19.084 7.00654 18.4384 6.9105ZM14.4492 21.6916C14.4116 21.7822 14.349 21.8595 14.269 21.9138C14.189 21.9681 14.0953 21.9971 13.9994 21.9971C13.9036 21.9971 13.8098 21.9681 13.7299 21.9138C13.6499 21.8595 13.5872 21.7822 13.5497 21.6916L9.9809 13.0299H18.0179L14.4492 21.6916ZM18.0082 12.0251H9.99068C9.72618 12.0244 9.46439 11.9702 9.22027 11.8656C8.97615 11.761 8.75447 11.6079 8.56789 11.4153C8.38132 11.2226 8.23349 10.994 8.13287 10.7426C8.03224 10.4912 7.98078 10.2219 7.98142 9.95012C7.98206 9.67829 8.03479 9.40925 8.13661 9.15836C8.23842 8.90748 8.38732 8.67966 8.57481 8.48791C8.76229 8.29616 8.98469 8.14425 9.2293 8.04083C9.47392 7.93741 9.73596 7.88453 10.0005 7.88519C10.1268 7.88529 10.2483 7.83512 10.3394 7.74521C10.4305 7.65529 10.4843 7.5326 10.4893 7.40287C10.5555 6.49265 10.954 5.64178 11.605 5.02087C12.256 4.39996 13.1113 4.05491 13.9994 4.05491C14.8876 4.05491 15.7429 4.39996 16.3939 5.02087C17.0448 5.64178 17.4434 6.49265 17.5095 7.40287C17.5161 7.53383 17.5716 7.65713 17.6645 7.74701C17.7574 7.83689 17.8806 7.8864 18.0082 7.88519C18.5424 7.88519 19.0547 8.10327 19.4324 8.49146C19.8101 8.87965 20.0223 9.40616 20.0223 9.95514C20.0223 10.5041 19.8101 11.0306 19.4324 11.4188C19.0547 11.807 18.5424 12.0251 18.0082 12.0251Z" fill="black"/>
</svg>
