<svg width="100" height="100" viewBox="0 0 100 100" fill="none" xmlns="http://www.w3.org/2000/svg">
<path d="M16.8147 59.6075L16.7325 59.189C16.3727 57.3725 17.9522 55.733 19.842 55.9724C22.1249 56.2619 25.1439 56.0881 28 55.4" stroke="black" stroke-width="2" stroke-linecap="round" stroke-linejoin="round"/>
<path d="M49.65 61.8069C49.65 61.8069 61.9737 62.3293 68.5 60.7047M90.5556 61.6417C90.5556 61.6417 87.5445 56.5486 88.8333 48.7972C90.4945 34.2805 77.0042 32.2111 79.8806 32.9L79.4083 32.718L47.1903 31.9069C45.8986 31.8736 44.607 31.9278 43.3236 32.068L32.3361 33.2653M10.8195 30.9305C13.5833 34.4542 16.35 34.4542 16.35 34.4542" stroke="black" stroke-width="2" stroke-linecap="round" stroke-linejoin="round"/>
<path d="M26.3542 28.743C28.3236 32.6917 23.9403 34.718 23.9403 34.718C23.9403 34.718 20.1667 29.4708 16.35 34.4542L13.4875 37.9264C13.4875 37.9264 10.5556 42.7458 8.5014 45.5125C7.93056 46.2819 8.95973 48.8805 9.45417 49.7055C10.3708 51.2403 16.8875 52.1861 22.9583 50C22.9583 50 27.5391 50.4109 28.8048 58.5" stroke="black" stroke-width="2" stroke-linecap="round" stroke-linejoin="round"/>
<path d="M47.5 61.5L38.9604 65.5892L17.6582 65.7687C16.2838 65.8362 15.0738 64.9171 14.8147 63.6074L14.7325 63.189C14.3727 61.3725 15.9523 59.733 17.842 59.9724C21.685 60.4597 27.6137 59.6343 31.34 57.2524C35.5959 54.5304 37.9413 55.0265 37.9413 55.0265" stroke="black" stroke-width="2" stroke-linecap="round" stroke-linejoin="round"/>
<path d="M21.4499 40.455C22.2866 47.3532 27.4758 45.2997 27.4758 45.2997L27.8006 45.1483C29.9165 40.6155 26.1631 39.0832 26.1631 39.0832" stroke="black" stroke-width="2" stroke-linecap="round" stroke-linejoin="round"/>
<path d="M88.5 57C88.5 65.4531 80.2184 68.419 71.3729 67.6612L60.1699 67.6416C58.9788 67.6388 57.9356 66.8956 57.5777 65.7939L57.4669 65.4531C56.8995 63.7069 58.2546 61.8997 60.1438 61.8846L70.0709 61.0337C70.0709 61.0337 78.4165 52.2863 83.5938 52.2602" stroke="black" stroke-width="2" stroke-linecap="round" stroke-linejoin="round"/>
</svg>
