<svg width="100" height="100" viewBox="0 0 100 100" fill="none" xmlns="http://www.w3.org/2000/svg">
<path d="M51.7495 57.5276L40.9604 61.5892L19.6582 61.7688C18.2838 61.8362 17.0738 60.9171 16.8147 59.6075L16.7325 59.189C16.3727 57.3725 17.9523 55.733 19.842 55.9724C23.685 56.4597 29.6137 55.6343 33.34 53.2524C37.5959 50.5304 39.9413 51.0265 39.9413 51.0265" fill="white"/>
<path d="M51.7495 57.5276L40.9604 61.5892L19.6582 61.7688C18.2838 61.8362 17.0738 60.9171 16.8147 59.6075L16.7325 59.189C16.3727 57.3725 17.9523 55.733 19.842 55.9724C23.685 56.4597 29.6137 55.6343 33.34 53.2524C37.5959 50.5304 39.9413 51.0265 39.9413 51.0265" stroke="black" stroke-width="2" stroke-linecap="round" stroke-linejoin="round"/>
<path d="M8.64197 45.679L11.7284 40.7407L17.2839 33.3333L20.1106 32.5L22.5 33.3333L24.6914 34.5679L44.4444 32.0988L78.75 32.5L83.3333 34.5679L87.5 38.75L88.8889 45.0617L88.75 55V57.5L87 63L82.0988 66.5L76.5 68L65.8796 67.395H64.0278L63 68H61.5L60 66.5L61.5 67.5L58.7654 67.395L57.5 66L58 61.5L71.6049 59.2593L67.5 61.25L58.642 62.3457L50 61.7284L45.679 61.25L45.5589 56.4506L45.2744 62.3302L44.3244 63.858L41.8552 64.4753L40.6207 63.858L38.6299 64.8302L35.8025 63.5802L36.2997 58.9197L38.6299 61.25L35.8025 63.5802L35 63.75L32.0988 62.963L29.6296 61.1111L27.5 53.75L25.3086 51.25L22.5 50L17.2839 51.2346L11.25 51.25L8.74998 48.75L8.64197 45.679Z" fill="white"/>
<path d="M49.65 61.8069C49.65 61.8069 66 62.5 71.0083 59.8069M90.5556 61.6417C90.5556 61.6417 87.5445 56.5486 88.8333 48.7972C90.4945 34.2805 77.0042 32.2111 79.8806 32.9L79.4083 32.718L47.1903 31.9069C45.8986 31.8736 44.607 31.9278 43.3236 32.068L32.3361 33.2653M10.8195 30.9305C13.5833 34.4542 16.35 34.4542 16.35 34.4542" stroke="black" stroke-width="2" stroke-linecap="round" stroke-linejoin="round"/>
<path d="M26.3542 28.743C28.3236 32.6917 23.9403 34.718 23.9403 34.718C23.9403 34.718 20.1667 29.4708 16.35 34.4542L13.4875 37.9264C13.4875 37.9264 10.5556 42.7458 8.5014 45.5125C7.93056 46.2819 8.95973 48.8805 9.45417 49.7055C10.3708 51.2403 16.8875 52.1861 22.9583 50C22.9583 50 28.0208 50.4542 28.9722 59.8055C29.1542 61.5847 32.775 63.9958 35.7556 63.6" stroke="black" stroke-width="2" stroke-linecap="round" stroke-linejoin="round"/>
<path d="M49.7495 61.5276L38.9604 65.5892L17.6582 65.7688C16.2838 65.8362 15.0738 64.9171 14.8147 63.6075L14.7325 63.189C14.3727 61.3725 15.9523 59.733 17.842 59.9724C21.685 60.4597 27.6137 59.6343 31.34 57.2524C35.5959 54.5304 37.9413 55.0265 37.9413 55.0265" fill="white"/>
<path d="M49.7495 61.5276L38.9604 65.5892L17.6582 65.7688C16.2838 65.8362 15.0738 64.9171 14.8147 63.6075L14.7325 63.189C14.3727 61.3725 15.9523 59.733 17.842 59.9724C21.685 60.4597 27.6137 59.6343 31.34 57.2524C35.5959 54.5304 37.9413 55.0265 37.9413 55.0265" stroke="black" stroke-width="2" stroke-linecap="round" stroke-linejoin="round"/>
<path d="M25.9083 43.7569C32.5139 45.9139 32.8458 40.343 32.8458 40.343V39.9847C29.6319 36.1514 26.6569 38.9055 26.6569 38.9055" stroke="black" stroke-width="2" stroke-linecap="round" stroke-linejoin="round"/>
<path d="M88.5 57C88.5 65.4531 80.2184 68.419 71.3729 67.6612L60.1699 67.6416C58.9788 67.6388 57.9356 66.8956 57.5777 65.7939L57.4669 65.4531C56.8995 63.7069 58.2546 61.8997 60.1438 61.8846L70.0709 61.0337C70.0709 61.0337 78.4165 52.2863 83.5938 52.2602" stroke="black" stroke-width="2" stroke-linecap="round" stroke-linejoin="round"/>
</svg>
