<svg width="100" height="100" viewBox="0 0 100 100" fill="none" xmlns="http://www.w3.org/2000/svg">
<path d="M40 14.5L29 27L30 31.5L37 33L43.5 32L46.5 35L48.5 40.5L44 44C42.4147 44.0694 41.3004 44.315 38.5 45.5L30.5 49.5L29 52L30 54L29 56.5L30.5 59L34 59L38 57.5L38 60L39.5 61.5L38.5 64.5L34.5 65L34 67.5L35.5 69L38.5 69L39.5 72L37.5 74L37.5 76L39.5 76.5L42.5 75L48.5 77L36.5 79L35.5 82.5L39 84L49 80.5L42 82.5L41 85L42 87L55 87.5C58.1667 87 64.7 85.9 65.5 85.5C66.3 85.1 68.8333 82.3333 70 81L74 70.5L75.5 44C75.08 39.25 74.4927 36.6068 71.5 32L58 19.5C54.8305 17.2152 52.0052 16.5421 45 16.5L40 14.5Z" fill="#D9D9D9"/>
<path d="M48.0566 76.8718L38.1877 78.2412C36.3019 78.3551 35.0432 80.2308 35.7012 81.9449L35.8296 82.2794C36.2447 83.3608 37.3254 84.0484 38.5151 83.9889L40.5 83.8884" stroke="black" stroke-width="2" stroke-linecap="round" stroke-linejoin="round"/>
<path d="M74 71.2626L75.2951 45.5483C75.3285 44.2566 75.2743 42.965 75.134 41.6816" stroke="black" stroke-width="2" stroke-linecap="round" stroke-linejoin="round"/>
<path d="M30.0227 53.6538L29.7835 53.3007C28.7425 51.7692 29.5559 49.6429 31.3889 49.1249C33.6035 48.4993 36.3146 47.1597 38.6748 45.4104" stroke="black" stroke-width="2" stroke-linecap="round" stroke-linejoin="round"/>
<path d="M59.008 43.4062L52.745 50.507L33.2065 58.9957C31.9677 59.5948 30.4948 59.2215 29.7446 58.1172L29.5054 57.7642C28.4644 56.2327 29.2779 54.1063 31.1109 53.5883C34.8388 52.5353 39.9736 49.459 42.4731 45.8105C45.327 41.642 47.6798 41.1822 47.6798 41.1822" stroke="black" stroke-width="2" stroke-linecap="round" stroke-linejoin="round"/>
<path d="M48.0524 11.0197C49.7416 15.0961 45.2275 16.8117 45.2275 16.8117C45.2275 16.8117 41.8292 11.3141 37.6742 16.019L34.5764 19.2831C34.5764 19.2831 31.3154 23.8863 29.0733 26.5029C28.4502 27.2307 29.2956 29.8947 29.7313 30.7522C30.5386 32.3472 36.9734 33.7453 43.182 31.988C43.182 31.988 47.723 32.7175 48.4213 40.8751" stroke="black" stroke-width="2" stroke-linecap="round" stroke-linejoin="round"/>
<path d="M32.4029 12.1182C34.9142 15.8261 37.6742 16.019 37.6742 16.019" stroke="black" stroke-width="2" stroke-linecap="round" stroke-linejoin="round"/>
<path d="M42.3431 22.361C42.6966 29.3008 48.0164 27.6143 48.0164 27.6143L48.3509 27.4859C50.7779 23.1117 47.1405 21.3213 47.1405 21.3213" stroke="black" stroke-width="2" stroke-linecap="round" stroke-linejoin="round"/>
<path d="M71.2493 75.6418C71.6918 84.0834 63.5767 87.4786 54.7037 87.1848L43.5151 87.7516C42.3254 87.811 41.2447 87.1235 40.8296 86.0421L40.7012 85.7075C40.0432 83.9934 41.3019 82.1177 43.1877 82.0038L53.0566 80.6345C53.0566 80.6345 60.933 71.4623 66.1018 71.1653" stroke="black" stroke-width="2" stroke-linecap="round" stroke-linejoin="round"/>
<path d="M48 56.7626C46 56.7626 44 57.3626 42.5 58.4626L40 57.0626C39.5582 56.8938 39.0709 56.8869 38.6246 57.0433C38.1783 57.1996 37.8018 57.5091 37.562 57.9168C37.3222 58.3244 37.2346 58.8038 37.3148 59.2699C37.395 59.736 37.6378 60.1586 38 60.4626L39.6 61.3626C39 62.3626 38.5 63.4626 38.2 64.7626H36C35.4696 64.7626 34.9608 64.9733 34.5858 65.3484C34.2107 65.7235 34 66.2322 34 66.7626C34 67.2931 34.2107 67.8018 34.5858 68.1768C34.9608 68.5519 35.4696 68.7626 36 68.7626H38.2C38.413 69.9845 38.8908 71.145 39.6 72.1626L38 73.0626C37.5491 73.3279 37.2221 73.7613 37.0908 74.2677C36.9595 74.774 37.0348 75.3118 37.3 75.7626C37.5652 76.2135 37.9987 76.5405 38.505 76.6718C39.0114 76.8031 39.5491 76.7279 40 76.4626L42.5 75.0626C44 76.1626 46 76.7626 48 76.7626" stroke="black" stroke-width="2" stroke-linecap="round" stroke-linejoin="round"/>
<path d="M71.8871 32.3778C71.8871 32.3778 63.7022 23.15 58 19.5839" stroke="black" stroke-width="2" stroke-linecap="round" stroke-linejoin="round"/>
</svg>
