<svg width="40" height="40" viewBox="0 0 40 40" fill="none" xmlns="http://www.w3.org/2000/svg">
<path d="M37.6375 16.0094C38.2489 14.7403 38.5651 13.3493 38.5625 11.9406C38.5625 6.75313 34.3594 2.55 29.1719 2.55C27.9562 2.55 26.7937 2.78438 25.725 3.20625C24.3594 2.01563 22.5687 1.28125 20.625 1.28125C18.25 1.28125 16.125 2.34375 14.7187 4C13.625 3.40625 12.375 3.0625 11.0625 3.0625C6.875 3.09375 3.46874 6.46875 3.46874 10.6562C3.46874 12.2187 3.93749 13.6875 4.78124 14.9063C3.21874 16.1563 2.12499 18 1.90624 20.1563C1.49999 24.3438 4.59374 28.125 8.84375 28.5313C9.84375 28.625 10.7812 28.5313 11.6875 28.2813C12.0312 31.625 14.8437 34.2188 18.2812 34.2188C20.4687 34.2188 22.4062 33.1563 23.5937 31.5313C24.7187 32.4063 26.125 32.9688 27.6875 32.9688C31.125 32.9688 33.9687 30.3125 34.2187 26.9688C36.875 25.75 38.75 23.0625 38.75 19.9375C38.75 18.5031 38.3344 17.15 37.6375 16.0094Z" fill="black" fill-opacity="0.05"/>
<path d="M7.59375 30.4062C6.1875 30.25 4.9375 31.2812 4.78125 32.6875C4.625 34.0937 5.65625 35.3437 7.0625 35.4687C8.46875 35.625 9.71875 34.5937 9.875 33.1875C10.0312 31.7812 9 30.5312 7.59375 30.4062ZM2.8125 35.7187C1.875 35.625 1.03125 36.3125 0.937496 37.25C0.843746 38.1875 1.53125 39 2.46875 39.0937C3.40625 39.1875 4.25 38.5 4.34375 37.5625C4.4375 36.6562 3.75 35.8125 2.8125 35.7187Z" fill="black" fill-opacity="0.05"/>
<path d="M13.3404 12.8196C13.3253 12.7175 13.3345 12.6137 13.3674 12.515C13.4004 12.4164 13.4564 12.3253 13.5317 12.2477C13.6069 12.1701 13.6997 12.1079 13.8039 12.0652C13.908 12.0224 14.021 12.0002 14.1355 12H25.8637C25.9781 12.0002 26.0912 12.0225 26.1954 12.0652C26.2996 12.1079 26.3924 12.1701 26.4677 12.2476C26.5431 12.3252 26.5992 12.4163 26.6323 12.515C26.6654 12.6136 26.6747 12.7174 26.6597 12.8196L26.6587 12.8236L26.4809 13.8698V13.8707C26.4554 14.0253 26.3872 14.1717 26.2825 14.2965C26.1779 14.4212 26.0401 14.5204 25.8819 14.5849L24.8331 21.7796V21.7809C24.7629 22.2756 24.3022 22.6667 23.7353 22.6667H16.2594C15.6915 22.6667 15.2313 22.2756 15.1621 21.7813V21.7796L15.015 20.7729C14.3478 20.6529 13.8609 20.3547 13.616 19.8547C13.337 19.2867 13.4446 18.5862 13.6604 17.9258C13.8283 17.4147 14.0822 16.8662 14.3656 16.3209L14.1128 14.584C13.9544 14.5196 13.8166 14.4205 13.712 14.2957C13.6073 14.1709 13.5391 14.0245 13.5138 13.8698L13.3409 12.8253L13.3404 12.8196ZM14.3503 12.8889L14.491 13.7391C14.4926 13.7499 14.4985 13.7597 14.5076 13.7669C14.5167 13.774 14.5284 13.7779 14.5404 13.7778H25.4587C25.4775 13.7778 25.4997 13.7644 25.5037 13.7396L25.5042 13.7373L25.6488 12.8889H14.3503ZM14.6278 18.1182C14.6211 18.1379 14.6145 18.1576 14.6081 18.1773C14.4046 18.7996 14.3908 19.2333 14.5192 19.4956C14.5735 19.6067 14.6723 19.7218 14.8747 19.808L14.6278 18.1182ZM16.0199 20.8338L16.1419 21.6693C16.1517 21.7431 16.215 21.7778 16.2594 21.7778H23.7358C23.7802 21.7778 23.843 21.7431 23.8528 21.6693L23.8533 21.6667L24.874 14.6667H21.7916C21.8702 14.6768 21.9449 14.7039 22.0094 14.7456C22.0738 14.7873 22.1262 14.8423 22.162 14.9061C22.1978 14.9698 22.216 15.0404 22.2151 15.1119C22.2141 15.1833 22.1941 15.2535 22.1566 15.3164C22.0227 15.5409 21.8924 15.7627 21.764 15.9809C21.0109 17.2613 20.3319 18.4173 19.523 19.2631C19.0396 19.7689 18.4949 20.1831 17.8376 20.4591C17.2964 20.6871 16.6969 20.8142 16.0199 20.8338ZM21.6509 14.6667H15.1206L15.891 19.9467C16.4905 19.9409 16.9878 19.8356 17.4194 19.6542C17.9186 19.444 18.3571 19.12 18.7744 18.6836C19.5043 17.92 20.1225 16.8693 20.882 15.58C21.0119 15.3591 21.1462 15.1311 21.2855 14.8969C21.322 14.8354 21.3741 14.7825 21.4376 14.7425C21.5011 14.7025 21.5742 14.6765 21.6509 14.6667Z" fill="black"/>
</svg>
