<svg width="30" height="30" viewBox="0 0 30 30" fill="none" xmlns="http://www.w3.org/2000/svg">
<g clip-path="url(#clip0_40_99)">
<path d="M28.2281 12.007C28.6867 11.0552 28.9239 10.012 28.9219 8.95547C28.9219 5.06484 25.7695 1.9125 21.8789 1.9125C20.9672 1.9125 20.0953 2.08828 19.2938 2.40469C18.2695 1.51172 16.9266 0.960938 15.4688 0.960938C13.6875 0.960938 12.0938 1.75781 11.0391 3C10.2188 2.55469 9.28126 2.29688 8.29688 2.29688C5.15626 2.32031 2.60157 4.85156 2.60157 7.99219C2.60157 9.16406 2.95313 10.2656 3.58594 11.1797C2.41407 12.1172 1.59376 13.5 1.42969 15.1172C1.12501 18.2578 3.44532 21.0938 6.63282 21.3984C7.38282 21.4688 8.08595 21.3984 8.76563 21.2109C9.02345 23.7188 11.1328 25.6641 13.7109 25.6641C15.3516 25.6641 16.8047 24.8672 17.6953 23.6484C18.5391 24.3047 19.5938 24.7266 20.7656 24.7266C23.3438 24.7266 25.4766 22.7344 25.6641 20.2266C27.6563 19.3125 29.0625 17.2969 29.0625 14.9531C29.0625 13.8773 28.7508 12.8625 28.2281 12.007Z" fill="white" stroke="black" stroke-miterlimit="10"/>
<path d="M5.69531 22.8047C4.64062 22.6875 3.70312 23.461 3.58593 24.5156C3.46874 25.5703 4.24218 26.5078 5.29687 26.6016C6.35156 26.7188 7.28906 25.9453 7.40624 24.8906C7.52343 23.836 6.74999 22.8985 5.69531 22.8047ZM2.10937 26.7891C1.40624 26.7188 0.77343 27.2344 0.703118 27.9375C0.632805 28.6406 1.14843 29.25 1.85156 29.3203C2.55468 29.3906 3.18749 28.875 3.25781 28.1719C3.32812 27.4922 2.81249 26.8594 2.10937 26.7891Z" fill="white" stroke="black" stroke-miterlimit="10"/>
</g>
<path d="M12.8722 10.1342C12.9537 10.0877 13.0538 10.0598 13.1582 10.0545C13.2627 10.0491 13.3662 10.0666 13.4541 10.1043C15.1497 10.8338 16.0622 11.7567 16.532 12.7725C16.6483 13.0239 16.7371 13.2801 16.8039 13.5393C17.3347 12.946 18.1674 12.4755 19.4098 12.136C19.4974 12.1121 19.5924 12.1055 19.684 12.1171C19.7756 12.1287 19.8601 12.1579 19.9277 12.2014C19.9953 12.2449 20.0434 12.3009 20.0663 12.363C20.0893 12.4252 20.0862 12.4909 20.0574 12.5527L19.9608 12.7598C19.2347 14.3127 19.0121 14.7884 18.9771 15.8838C18.9742 15.9747 18.919 16.062 18.8236 16.1263C18.7283 16.1906 18.6006 16.2267 18.4687 16.2267C18.3368 16.2267 18.2115 16.1906 18.1203 16.1263C18.029 16.062 17.9794 15.9747 17.9823 15.8838C18.0158 14.8361 18.2229 14.2719 18.7519 13.1257C18.1857 13.3809 17.8087 13.6772 17.5515 14.0054C17.1548 14.5109 17.0117 15.131 16.9876 15.8838C16.9847 15.9747 16.9295 16.062 16.8342 16.1263C16.7388 16.1906 16.6112 16.2267 16.4793 16.2267C16.3474 16.2267 16.222 16.1906 16.1308 16.1263C16.0396 16.062 15.99 15.9747 15.9929 15.8838C16.0257 14.8577 15.9923 13.8785 15.5834 12.9937C15.3089 12.4007 14.8632 11.8445 14.135 11.3469C14.5985 12.6706 14.5627 13.9478 14.5036 15.7963L14.5008 15.8838C14.4978 15.9747 14.4427 16.062 14.3473 16.1263C14.252 16.1906 14.1243 16.2267 13.9924 16.2267C13.8605 16.2267 13.7352 16.1906 13.6439 16.1263C13.5527 16.062 13.5031 15.9747 13.506 15.8838C13.5311 15.0984 13.549 14.3847 13.2863 13.7815C13.1352 13.4341 12.8895 13.123 12.4785 12.8644C12.9015 13.9457 13.045 14.7462 13.0087 15.8838C13.0057 15.9747 12.9506 16.062 12.8552 16.1263C12.7599 16.1906 12.6322 16.2267 12.5003 16.2267C12.3684 16.2267 12.2431 16.1906 12.1518 16.1263C12.0606 16.062 12.011 15.9747 12.0139 15.8838C12.0563 14.5586 11.8478 13.7386 11.1617 12.2197C11.1338 12.1576 11.1324 12.091 11.1576 12.0276C11.1828 11.9642 11.2336 11.9068 11.304 11.8619C11.3744 11.8171 11.4615 11.7868 11.5551 11.7746C11.6486 11.7624 11.7446 11.7688 11.8319 11.793C12.5196 11.9841 13.0387 12.2392 13.4269 12.5407C13.3159 11.8487 13.0778 11.1711 12.7185 10.5241C12.6817 10.4571 12.6767 10.3834 12.7043 10.3134C12.7319 10.2434 12.7907 10.1807 12.8722 10.1342Z" fill="black"/>
<defs>
<clipPath id="clip0_40_99">
<rect width="30" height="30" fill="white"/>
</clipPath>
</defs>
</svg>
