<svg width="30" height="30" viewBox="0 0 30 30" fill="none" xmlns="http://www.w3.org/2000/svg">
<g clip-path="url(#clip0_39_94)">
<path d="M28.2281 12.007C28.6867 11.0552 28.9239 10.012 28.9219 8.95547C28.9219 5.06484 25.7695 1.9125 21.8789 1.9125C20.9672 1.9125 20.0953 2.08828 19.2938 2.40469C18.2695 1.51172 16.9266 0.960938 15.4688 0.960938C13.6875 0.960938 12.0938 1.75781 11.0391 3C10.2188 2.55469 9.28126 2.29688 8.29688 2.29688C5.15626 2.32031 2.60157 4.85156 2.60157 7.99219C2.60157 9.16406 2.95313 10.2656 3.58594 11.1797C2.41407 12.1172 1.59376 13.5 1.42969 15.1172C1.12501 18.2578 3.44532 21.0938 6.63282 21.3984C7.38282 21.4688 8.08595 21.3984 8.76563 21.2109C9.02345 23.7188 11.1328 25.6641 13.7109 25.6641C15.3516 25.6641 16.8047 24.8672 17.6953 23.6484C18.5391 24.3047 19.5938 24.7266 20.7656 24.7266C23.3438 24.7266 25.4766 22.7344 25.6641 20.2266C27.6563 19.3125 29.0625 17.2969 29.0625 14.9531C29.0625 13.8773 28.7508 12.8625 28.2281 12.007Z" fill="white" stroke="black" stroke-miterlimit="10"/>
<path d="M5.69531 22.8047C4.64062 22.6875 3.70312 23.461 3.58593 24.5156C3.46874 25.5703 4.24218 26.5078 5.29687 26.6016C6.35156 26.7188 7.28906 25.9453 7.40624 24.8906C7.52343 23.836 6.74999 22.8985 5.69531 22.8047ZM2.10937 26.7891C1.40624 26.7188 0.77343 27.2344 0.703118 27.9375C0.632805 28.6406 1.14843 29.25 1.85156 29.3203C2.55468 29.3906 3.18749 28.875 3.25781 28.1719C3.32812 27.4922 2.81249 26.8594 2.10937 26.7891Z" fill="white" stroke="black" stroke-miterlimit="10"/>
</g>
<path d="M10.0053 9.61467C9.99394 9.53811 10.0008 9.46024 10.0256 9.38627C10.0503 9.31231 10.0923 9.24394 10.1488 9.18576C10.2052 9.12757 10.2748 9.0809 10.3529 9.04886C10.431 9.01683 10.5158 9.00017 10.6016 9H19.3977C19.4836 9.00018 19.5684 9.01685 19.6465 9.04887C19.7247 9.0809 19.7943 9.12756 19.8508 9.18573C19.9073 9.24391 19.9494 9.31226 19.9742 9.38622C19.999 9.46019 20.006 9.53807 19.9948 9.61467L19.994 9.61767L19.8607 10.4023V10.403C19.8415 10.519 19.7904 10.6288 19.7119 10.7223C19.6334 10.8159 19.5301 10.8903 19.4115 10.9387L18.6248 16.3347V16.3357C18.5722 16.7067 18.2267 17 17.8015 17H12.1945C11.7686 17 11.4235 16.7067 11.3716 16.336V16.3347L11.2612 15.5797C10.7609 15.4897 10.3957 15.266 10.212 14.891C10.0027 14.465 10.0835 13.9397 10.2453 13.4443C10.3712 13.061 10.5616 12.6497 10.7742 12.2407L10.5846 10.938C10.4658 10.8897 10.3625 10.8154 10.284 10.7218C10.2055 10.6282 10.1544 10.5183 10.1353 10.4023L10.0057 9.619L10.0053 9.61467ZM10.7627 9.66667L10.8683 10.3043C10.8695 10.3124 10.8739 10.3198 10.8807 10.3251C10.8875 10.3305 10.8963 10.3334 10.9053 10.3333H19.0941C19.1081 10.3333 19.1248 10.3233 19.1278 10.3047L19.1281 10.303L19.2366 9.66667H10.7627ZM10.9709 13.5887C10.9658 13.6034 10.9609 13.6182 10.9561 13.633C10.8035 14.0997 10.7931 14.425 10.8894 14.6217C10.9301 14.705 11.0042 14.7913 11.1561 14.856L10.9709 13.5887ZM12.0149 15.6253L12.1064 16.252C12.1138 16.3073 12.1612 16.3333 12.1945 16.3333H17.8019C17.8352 16.3333 17.8822 16.3073 17.8896 16.252L17.89 16.25L18.6555 11H16.3437C16.4027 11.0076 16.4587 11.0279 16.507 11.0592C16.5554 11.0905 16.5946 11.1317 16.6215 11.1796C16.6484 11.2274 16.662 11.2803 16.6613 11.3339C16.6606 11.3875 16.6455 11.4401 16.6174 11.4873C16.5171 11.6557 16.4193 11.822 16.323 11.9857C15.7582 12.946 15.2489 13.813 14.6423 14.4473C14.2797 14.8267 13.8712 15.1373 13.3782 15.3443C12.9723 15.5153 12.5227 15.6107 12.0149 15.6253ZM16.2382 11H11.3405L11.9183 14.96C12.3679 14.9557 12.7408 14.8767 13.0645 14.7407C13.439 14.583 13.7679 14.34 14.0808 14.0127C14.6282 13.44 15.0919 12.652 15.6615 11.685C15.7589 11.5193 15.8597 11.3483 15.9641 11.1727C15.9915 11.1265 16.0306 11.0869 16.0782 11.0569C16.1258 11.0269 16.1806 11.0074 16.2382 11Z" fill="black"/>
<defs>
<clipPath id="clip0_39_94">
<rect width="30" height="30" fill="white"/>
</clipPath>
</defs>
</svg>
