<svg width="40" height="40" viewBox="0 0 40 40" fill="none" xmlns="http://www.w3.org/2000/svg">
<path d="M37.6375 16.0094C38.2489 14.7403 38.5651 13.3493 38.5625 11.9406C38.5625 6.75313 34.3594 2.55 29.1719 2.55C27.9562 2.55 26.7937 2.78438 25.725 3.20625C24.3594 2.01563 22.5687 1.28125 20.625 1.28125C18.25 1.28125 16.125 2.34375 14.7187 4C13.625 3.40625 12.375 3.0625 11.0625 3.0625C6.875 3.09375 3.46874 6.46875 3.46874 10.6562C3.46874 12.2187 3.93749 13.6875 4.78124 14.9063C3.21874 16.1563 2.12499 18 1.90624 20.1563C1.49999 24.3438 4.59374 28.125 8.84375 28.5313C9.84375 28.625 10.7812 28.5313 11.6875 28.2813C12.0312 31.625 14.8437 34.2188 18.2812 34.2188C20.4687 34.2188 22.4062 33.1563 23.5937 31.5313C24.7187 32.4063 26.125 32.9688 27.6875 32.9688C31.125 32.9688 33.9687 30.3125 34.2187 26.9688C36.875 25.75 38.75 23.0625 38.75 19.9375C38.75 18.5031 38.3344 17.15 37.6375 16.0094Z" fill="black" fill-opacity="0.05"/>
<path d="M7.59375 30.4062C6.1875 30.25 4.9375 31.2812 4.78125 32.6875C4.625 34.0937 5.65625 35.3437 7.0625 35.4687C8.46875 35.625 9.71875 34.5937 9.875 33.1875C10.0312 31.7812 9 30.5312 7.59375 30.4062ZM2.8125 35.7187C1.875 35.625 1.03125 36.3125 0.937496 37.25C0.843746 38.1875 1.53125 39 2.46875 39.0937C3.40625 39.1875 4.25 38.5 4.34375 37.5625C4.4375 36.6562 3.75 35.8125 2.8125 35.7187Z" fill="black" fill-opacity="0.05"/>
<path d="M17.1629 13.5123C17.2716 13.4503 17.405 13.4131 17.5443 13.406C17.6836 13.3988 17.8216 13.4221 17.9388 13.4725C20.1996 14.4451 21.4162 15.6756 22.0427 17.03C22.1978 17.3652 22.3162 17.7068 22.4053 18.0525C23.1129 17.2614 24.2232 16.634 25.8797 16.1813C25.9965 16.1495 26.1232 16.1407 26.2454 16.1561C26.3675 16.1716 26.4801 16.2105 26.5703 16.2685C26.6605 16.3265 26.7245 16.4012 26.7551 16.4841C26.7857 16.5669 26.7816 16.6546 26.7433 16.7369L26.6144 17.0131C25.6463 19.0836 25.3495 19.7179 25.3028 21.1784C25.2989 21.2997 25.2253 21.416 25.0982 21.5017C24.9711 21.5875 24.8009 21.6357 24.625 21.6357C24.4491 21.6357 24.282 21.5875 24.1604 21.5017C24.0387 21.416 23.9726 21.2997 23.9765 21.1784C24.0211 19.7814 24.2972 19.0292 25.0026 17.501C24.2476 17.8412 23.7449 18.2363 23.402 18.6739C22.8731 19.3479 22.6822 20.1747 22.6501 21.1784C22.6463 21.2997 22.5727 21.416 22.4456 21.5017C22.3185 21.5875 22.1482 21.6357 21.9724 21.6357C21.7965 21.6357 21.6293 21.5875 21.5077 21.5017C21.3861 21.416 21.3199 21.2997 21.3238 21.1784C21.3676 19.8102 21.3231 18.5047 20.7779 17.325C20.4119 16.5343 19.8176 15.7927 18.8467 15.1292C19.4647 16.8942 19.4169 18.5971 19.3381 21.0618L19.3344 21.1784C19.3305 21.2997 19.2569 21.416 19.1298 21.5017C19.0027 21.5875 18.8325 21.6357 18.6566 21.6357C18.4807 21.6357 18.3136 21.5875 18.1919 21.5017C18.0703 21.416 18.0042 21.2997 18.008 21.1784C18.0415 20.1312 18.0653 19.1797 17.715 18.3753C17.5137 17.9121 17.186 17.4974 16.638 17.1526C17.202 18.5943 17.3934 19.6616 17.3449 21.1784C17.341 21.2997 17.2674 21.416 17.1403 21.5017C17.0132 21.5875 16.843 21.6357 16.6671 21.6357C16.4912 21.6357 16.3241 21.5875 16.2025 21.5017C16.0808 21.416 16.0147 21.2997 16.0186 21.1784C16.0751 19.4115 15.797 18.3182 14.8823 16.2929C14.8451 16.2102 14.8432 16.1214 14.8768 16.0369C14.9104 15.9523 14.9781 15.8757 15.072 15.8159C15.1659 15.7561 15.2821 15.7157 15.4068 15.6995C15.5315 15.6832 15.6595 15.6917 15.7758 15.7241C16.6928 15.9788 17.3849 16.319 17.9026 16.7209C17.7545 15.7983 17.4371 14.8948 16.958 14.0322C16.9089 13.9429 16.9023 13.8445 16.9391 13.7512C16.9759 13.6578 17.0542 13.5742 17.1629 13.5123Z" fill="black"/>
</svg>
