<svg width="27" height="27" viewBox="0 0 27 27" fill="none" xmlns="http://www.w3.org/2000/svg">
<path d="M3.01066 7.22933C2.98789 7.07621 3.0017 6.92048 3.05116 6.77254C3.10063 6.62461 3.18462 6.48789 3.29751 6.37151C3.41041 6.25514 3.5496 6.1618 3.7058 6.09773C3.86199 6.03366 4.03158 6.00034 4.20323 6H21.7955C21.9672 6.00037 22.1368 6.03369 22.2931 6.09775C22.4493 6.16181 22.5886 6.25512 22.7016 6.37147C22.8146 6.48781 22.8988 6.62451 22.9484 6.77244C22.9981 6.92038 23.0121 7.07614 22.9896 7.22933L22.9881 7.23533L22.7214 8.80467V8.806C22.6831 9.03794 22.5807 9.25752 22.4238 9.44468C22.2668 9.63183 22.0602 9.78058 21.8229 9.87733L20.2496 20.6693V20.6713C20.1444 21.4133 19.4533 22 18.603 22H7.3891C6.53726 22 5.84691 21.4133 5.7432 20.672V20.6693L5.52247 19.1593C4.52174 18.9793 3.79139 18.532 3.42399 17.782C3.00548 16.93 3.16696 15.8793 3.49065 14.8887C3.7425 14.122 4.12323 13.2993 4.54841 12.4813L4.16916 9.876C3.93167 9.77945 3.72494 9.63076 3.56795 9.44357C3.41096 9.25637 3.30873 9.03668 3.27066 8.80467L3.0114 7.238L3.01066 7.22933ZM4.52545 7.33333L4.73656 8.60867C4.73891 8.62481 4.74774 8.63961 4.76138 8.6503C4.77503 8.66098 4.79254 8.6668 4.81063 8.66667H21.1881C21.2163 8.66667 21.2496 8.64667 21.2555 8.60933L21.2562 8.606L21.4733 7.33333H4.52545ZM4.94174 15.1773C4.93169 15.2068 4.92181 15.2364 4.91211 15.266C4.60693 16.1993 4.58619 16.85 4.77878 17.2433C4.86026 17.41 5.0084 17.5827 5.3121 17.712L4.94174 15.1773ZM7.02985 19.2507L7.21281 20.504C7.22762 20.6147 7.32243 20.6667 7.3891 20.6667H18.6037C18.6704 20.6667 18.7644 20.6147 18.7793 20.504L18.78 20.5L20.3111 10H15.6875C15.8053 10.0153 15.9173 10.0559 16.014 10.1184C16.1107 10.1809 16.1893 10.2635 16.243 10.3591C16.2967 10.4548 16.324 10.5606 16.3226 10.6678C16.3212 10.7749 16.2911 10.8802 16.2349 10.9747C16.0341 11.3113 15.8386 11.644 15.646 11.9713C14.5164 13.892 13.4979 15.626 12.2846 16.8947C11.5594 17.6533 10.7424 18.2747 9.75646 18.6887C8.94463 19.0307 8.04538 19.2213 7.02985 19.2507ZM15.4764 10H5.68098L6.83652 17.92C7.73576 17.9113 8.48167 17.7533 9.12907 17.4813C9.87794 17.166 10.5357 16.68 11.1616 16.0253C12.2564 14.88 13.1838 13.304 14.323 11.37C14.5179 11.0387 14.7193 10.6967 14.9282 10.3453C14.983 10.2531 15.0612 10.1737 15.1564 10.1137C15.2517 10.0537 15.3613 10.0148 15.4764 10Z" fill="black"/>
</svg>
