<svg width="27" height="27" viewBox="0 0 27 27" fill="none" xmlns="http://www.w3.org/2000/svg">
<path d="M2.01173 6.383C1.98668 6.21074 2.00187 6.03554 2.05628 5.86911C2.1107 5.70269 2.20308 5.54887 2.32727 5.41795C2.45145 5.28703 2.60457 5.18202 2.77638 5.10995C2.94819 5.03787 3.13474 5.00039 3.32356 5H22.675C22.8639 5.00041 23.0505 5.0379 23.2224 5.10997C23.3943 5.18203 23.5475 5.28701 23.6718 5.4179C23.7961 5.54879 23.8887 5.70257 23.9433 5.869C23.9979 6.03542 24.0133 6.21065 23.9885 6.383L23.9869 6.38975L23.6935 8.15525V8.15675C23.6514 8.41768 23.5388 8.66471 23.3662 8.87526C23.1935 9.08581 22.9663 9.25316 22.7052 9.362L20.9746 21.503V21.5052C20.8589 22.34 20.0987 23 19.1633 23H6.82801C5.89099 23 5.1316 22.34 5.01752 21.506V21.503L4.77471 19.8043C3.67392 19.6018 2.87053 19.0985 2.46639 18.2548C2.00602 17.2963 2.18365 16.1143 2.53972 14.9998C2.81675 14.1373 3.23556 13.2118 3.70325 12.2915L3.28607 9.3605C3.02484 9.25189 2.79744 9.0846 2.62474 8.87401C2.45205 8.66342 2.3396 8.41627 2.29772 8.15525L2.01254 6.39275L2.01173 6.383ZM3.67799 6.5L3.91021 7.93475C3.9128 7.95291 3.92251 7.96957 3.93752 7.98159C3.95253 7.99361 3.9718 8.00016 3.99169 8H22.0069C22.0379 8 22.0745 7.9775 22.0811 7.9355L22.0819 7.93175L22.3206 6.5H3.67799ZM4.13591 15.3245C4.12486 15.3577 4.11399 15.3909 4.10332 15.4243C3.76762 16.4743 3.74481 17.2062 3.95665 17.6487C4.04628 17.8362 4.20924 18.0305 4.54331 18.176L4.13591 15.3245ZM6.43283 19.907L6.63409 21.317C6.65038 21.4415 6.75468 21.5 6.82801 21.5H19.1641C19.2374 21.5 19.3409 21.4415 19.3572 21.317L19.358 21.3125L21.0422 9.5H15.9562C16.0858 9.51718 16.2091 9.56287 16.3154 9.63319C16.4218 9.70352 16.5082 9.79642 16.5673 9.90401C16.6264 10.0116 16.6564 10.1307 16.6549 10.2513C16.6533 10.3718 16.6202 10.4902 16.5583 10.5965C16.3375 10.9752 16.1224 11.3495 15.9106 11.7177C14.668 13.8785 13.5477 15.8292 12.213 17.2565C11.4153 18.11 10.5166 18.809 9.43211 19.2748C8.53909 19.6595 7.54992 19.874 6.43283 19.907ZM15.724 9.5H4.94908L6.22017 18.41C7.20934 18.4002 8.02984 18.2225 8.74197 17.9165C9.56574 17.5618 10.2893 17.015 10.9778 16.2785C12.1821 14.99 13.2022 13.217 14.4553 11.0413C14.6696 10.6685 14.8913 10.2837 15.121 9.8885C15.1813 9.7847 15.2673 9.69544 15.3721 9.62794C15.4768 9.56044 15.5974 9.51661 15.724 9.5Z" fill="black"/>
</svg>
