<svg width="27" height="27" viewBox="0 0 27 27" fill="none" xmlns="http://www.w3.org/2000/svg">
<path d="M14 6C19.5227 6 24 8.51813 24 11.625V15.375C24 18.4819 19.5227 21 14 21C8.57545 21 4.16 18.5709 4.00455 15.5409L4 15.375V11.625C4 8.51813 8.47727 6 14 6ZM14 17.25C10.6182 17.25 7.62727 16.305 5.81818 14.8594V15.375C5.81818 17.1394 9.34818 19.125 14 19.125C18.5545 19.125 22.0345 17.2219 22.1773 15.4856L22.1818 15.375L22.1827 14.8594C20.3736 16.305 17.3827 17.25 14 17.25ZM14 7.875C9.34818 7.875 5.81818 9.86063 5.81818 11.625C5.81818 13.3894 9.34818 15.375 14 15.375C18.6518 15.375 22.1818 13.3894 22.1818 11.625C22.1818 9.86063 18.6518 7.875 14 7.875Z" fill="black"/>
</svg>
