<svg width="27" height="27" viewBox="0 0 27 27" fill="none" xmlns="http://www.w3.org/2000/svg">
<path d="M14 7C18.9705 7 23 9.18238 23 11.875V15.125C23 17.8176 18.9705 20 14 20C9.11791 20 5.144 17.8948 5.00409 15.2688L5 15.125V11.875C5 9.18238 9.02955 7 14 7ZM14 16.75C10.9564 16.75 8.26455 15.931 6.63636 14.6781V15.125C6.63636 16.6541 9.81336 18.375 14 18.375C18.0991 18.375 21.2311 16.7256 21.3595 15.2209L21.3636 15.125L21.3645 14.6781C19.7363 15.931 17.0445 16.75 14 16.75ZM14 8.625C9.81336 8.625 6.63636 10.3459 6.63636 11.875C6.63636 13.4041 9.81336 15.125 14 15.125C18.1866 15.125 21.3636 13.4041 21.3636 11.875C21.3636 10.3459 18.1866 8.625 14 8.625Z" fill="black"/>
</svg>
