<svg width="27" height="27" viewBox="0 0 27 27" fill="none" xmlns="http://www.w3.org/2000/svg">
<path d="M4.44957 11.1492C4.60035 11.0633 4.78556 11.0117 4.97888 11.0018C5.1722 10.9918 5.36379 11.0241 5.52641 11.094C8.66429 12.444 10.353 14.1519 11.2225 16.0318C11.4378 16.497 11.6021 16.9711 11.7257 17.4509C12.708 16.3529 14.249 15.4822 16.5481 14.8538C16.7102 14.8096 16.8861 14.7975 17.0557 14.8189C17.2252 14.8403 17.3815 14.8943 17.5067 14.9748C17.6318 15.0553 17.7207 15.159 17.7632 15.274C17.8056 15.389 17.7999 15.5107 17.7467 15.625L17.5679 16.0083C16.2242 18.8821 15.8122 19.7624 15.7474 21.7896C15.742 21.9579 15.6399 22.1193 15.4634 22.2383C15.287 22.3574 15.0508 22.4242 14.8066 22.4242C14.5625 22.4242 14.3305 22.3574 14.1617 22.2383C13.9929 22.1193 13.9011 21.9579 13.9065 21.7896C13.9685 19.8506 14.3516 18.8066 15.3307 16.6855C14.2829 17.1577 13.5851 17.7061 13.1092 18.3135C12.3751 19.249 12.1102 20.3965 12.0656 21.7896C12.0602 21.9579 11.9581 22.1193 11.7817 22.2383C11.6052 22.3574 11.369 22.4242 11.1249 22.4242C10.8808 22.4242 10.6488 22.3574 10.48 22.2383C10.3112 22.1193 10.2193 21.9579 10.2247 21.7896C10.2855 19.8906 10.2237 18.0786 9.46703 16.4412C8.95906 15.3438 8.13413 14.3144 6.7866 13.3935C7.64435 15.8433 7.57798 18.2068 7.46858 21.6277L7.46341 21.7896C7.45803 21.9579 7.35589 22.1193 7.17947 22.2383C7.00305 22.3574 6.76679 22.4242 6.52267 22.4242C6.27856 22.4242 6.04658 22.3574 5.87777 22.2383C5.70896 22.1193 5.61715 21.9579 5.62253 21.7896C5.66901 20.3362 5.70204 19.0154 5.21584 17.899C4.93634 17.2561 4.48164 16.6804 3.72101 16.2019C4.50383 18.203 4.76941 19.6843 4.70209 21.7896C4.69671 21.9579 4.59457 22.1193 4.41815 22.2383C4.24173 22.3574 4.00547 22.4242 3.76135 22.4242C3.51724 22.4242 3.28526 22.3574 3.11645 22.2383C2.94764 22.1193 2.85583 21.9579 2.86121 21.7896C2.93963 19.3372 2.55371 17.8197 1.28411 15.0087C1.23245 14.8939 1.22979 14.7706 1.27645 14.6533C1.32311 14.536 1.41714 14.4296 1.54746 14.3467C1.67779 14.2637 1.83898 14.2076 2.01205 14.185C2.18512 14.1624 2.36286 14.1743 2.52433 14.2192C3.79704 14.5727 4.75761 15.0449 5.47612 15.6028C5.27066 14.3221 4.83015 13.0682 4.16509 11.8709C4.09699 11.7469 4.08782 11.6104 4.1389 11.4809C4.18997 11.3513 4.29869 11.2353 4.44957 11.1492Z" fill="black"/>
<path d="M22.9537 15.6836C22.8693 15.6354 22.7655 15.6065 22.6572 15.601C22.5489 15.5954 22.4416 15.6135 22.3505 15.6527C20.5926 16.4089 19.6466 17.3657 19.1594 18.4189C19.0389 18.6795 18.9468 18.9451 18.8775 19.2139C18.3273 18.5988 17.464 18.111 16.176 17.759C16.0852 17.7342 15.9866 17.7274 15.8916 17.7394C15.7966 17.7514 15.7091 17.7816 15.639 17.8267C15.5689 17.8718 15.5191 17.9299 15.4953 17.9943C15.4715 18.0588 15.4747 18.1269 15.5045 18.191L15.6047 18.4057C16.3574 20.0157 16.5882 20.5088 16.6246 21.6444C16.6276 21.7387 16.6848 21.8292 16.7836 21.8959C16.8825 21.9625 17.0148 22 17.1516 22C17.2883 22 17.4183 21.9625 17.5129 21.8959C17.6074 21.8292 17.6589 21.7387 17.6558 21.6444C17.6211 20.5582 17.4065 19.9733 16.858 18.7851C17.445 19.0496 17.8359 19.3568 18.1025 19.6971C18.5137 20.2212 18.6622 20.864 18.6871 21.6444C18.6901 21.7387 18.7474 21.8292 18.8462 21.8959C18.945 21.9625 19.0774 22 19.2141 22C19.3509 22 19.4809 21.9625 19.5754 21.8959C19.67 21.8292 19.7214 21.7387 19.7184 21.6444C19.6844 20.5806 19.719 19.5655 20.1429 18.6482C20.4275 18.0334 20.8896 17.4567 21.6445 16.9408C21.164 18.3133 21.2012 19.6373 21.2625 21.5538L21.2654 21.6444C21.2684 21.7387 21.3256 21.8292 21.4244 21.8959C21.5233 21.9625 21.6556 22 21.7924 22C21.9291 22 22.0591 21.9625 22.1537 21.8959C22.2482 21.8292 22.2997 21.7387 22.2966 21.6444C22.2706 20.8302 22.2521 20.0903 22.5245 19.4649C22.6811 19.1047 22.9358 18.7822 23.3619 18.5142C22.9234 19.6352 22.7746 20.4651 22.8123 21.6444C22.8153 21.7387 22.8725 21.8292 22.9714 21.8959C23.0702 21.9625 23.2025 22 23.3393 22C23.4761 22 23.606 21.9625 23.7006 21.8959C23.7952 21.8292 23.8466 21.7387 23.8436 21.6444C23.7996 20.2706 24.0158 19.4205 24.7271 17.8457C24.756 17.7814 24.7575 17.7123 24.7314 17.6466C24.7052 17.5809 24.6526 17.5213 24.5796 17.4748C24.5065 17.4283 24.4162 17.3969 24.3193 17.3843C24.2223 17.3716 24.1228 17.3783 24.0323 17.4034C23.3193 17.6014 22.7812 17.866 22.3787 18.1785C22.4938 17.4611 22.7405 16.7586 23.1131 16.0879C23.1513 16.0184 23.1564 15.942 23.1278 15.8694C23.0992 15.7968 23.0383 15.7318 22.9537 15.6836Z" fill="black"/>
</svg>
