<svg width="27" height="27" viewBox="0 0 27 27" fill="none" xmlns="http://www.w3.org/2000/svg">
<path fill-rule="evenodd" clip-rule="evenodd" d="M12.074 4.08333L10.0833 12.5458V22.7827C10.0833 23.2773 10.4517 23.5833 10.7907 23.5833H16.4176C16.7572 23.5833 17.125 23.2773 17.125 22.7827V12.5458L15.1344 4.08333H12.074ZM10.7902 4.80917C10.7902 4.80917 10.5031 4.833 10.254 4.68242C10.0633 4.56758 9.89537 4.35037 9.89537 3.94196C9.89537 3 10.3428 3 11.6856 3H15.5228C16.8655 3 17.313 3 17.313 3.9425C17.313 4.35037 17.145 4.56758 16.9544 4.68296C16.7052 4.833 16.4181 4.80862 16.4181 4.80862L18.2083 12.4201V22.7822C18.2083 23.8238 17.4067 24.6667 16.4176 24.6667H10.7907C9.80167 24.6667 9 23.8233 9 22.7827V12.4207L10.7902 4.80917Z" fill="black"/>
<path fill-rule="evenodd" clip-rule="evenodd" d="M9.76158 13.7451L9.54166 13.25C9.32121 12.7554 9.32175 12.7549 9.32175 12.7549H9.32283L9.32554 12.7533L9.33312 12.75L9.35912 12.7392C9.49787 12.6816 9.63841 12.6285 9.78054 12.5799C10.1356 12.4576 10.4993 12.3624 10.8687 12.295C11.6867 12.1488 12.8621 12.1054 13.6935 12.8453C14.2092 13.3047 15.0325 13.5647 15.7979 13.7012C16.2296 13.7769 16.6663 13.8211 17.1044 13.8333H17.125V14.9167H17.0882L16.9972 14.914C16.5314 14.8974 16.0673 14.8485 15.6083 14.7677C14.7942 14.6226 13.7212 14.3203 12.9731 13.6546C12.5403 13.27 11.8205 13.2256 11.0583 13.3615C10.6208 13.4415 10.1929 13.5671 9.78162 13.7364L9.76483 13.7434L9.76158 13.7451Z" fill="black"/>
<path d="M10.625 3.54169H16.5833L16.0417 4.62502H11.1667L10.625 3.54169Z" fill="black"/>
</svg>
