<svg width="27" height="27" viewBox="0 0 27 27" fill="none" xmlns="http://www.w3.org/2000/svg">
<path d="M13.5 10.3333V14.2917M23 13.5C23 14.7476 22.7543 15.9829 22.2769 17.1355C21.7994 18.2881 21.0997 19.3354 20.2175 20.2175C19.3354 21.0997 18.2881 21.7994 17.1355 22.2769C15.9829 22.7543 14.7476 23 13.5 23C12.2524 23 11.0171 22.7543 9.86451 22.2769C8.71191 21.7994 7.66464 21.0997 6.78249 20.2175C5.90033 19.3354 5.20056 18.2881 4.72314 17.1355C4.24572 15.9829 4 14.7476 4 13.5C4 10.9804 5.00089 8.56408 6.78249 6.78249C8.56408 5.00089 10.9804 4 13.5 4C16.0196 4 18.4359 5.00089 20.2175 6.78249C21.9991 8.56408 23 10.9804 23 13.5ZM13.5 17.4583H13.5084V17.4668H13.5V17.4583Z" stroke="black" stroke-width="1.5" stroke-linecap="round" stroke-linejoin="round"/>
</svg>
