<svg width="27" height="27" viewBox="0 0 27 27" fill="none" xmlns="http://www.w3.org/2000/svg">
<path d="M16.25 23.4C15.8667 23.7833 15.3917 23.975 14.825 23.975C14.2583 23.975 13.7833 23.7833 13.4 23.4L4.6 14.6C4.41667 14.4167 4.27067 14.2 4.162 13.95C4.05333 13.7 3.99933 13.4333 4 13.15V6C4 5.45 4.196 4.97933 4.588 4.588C4.98 4.19667 5.45067 4.00067 6 4H13.15C13.4333 4 13.7 4.05433 13.95 4.163C14.2 4.27167 14.4167 4.41733 14.6 4.6L23.4 13.425C23.7833 13.8083 23.975 14.2793 23.975 14.838C23.975 15.3967 23.7833 15.8673 23.4 16.25L16.25 23.4ZM14.825 22L21.975 14.85L13.15 6H6V13.15L14.825 22ZM8.5 10C8.91667 10 9.271 9.85433 9.563 9.563C9.855 9.27167 10.0007 8.91733 10 8.5C10 8.08333 9.85433 7.72933 9.563 7.438C9.27167 7.14667 8.91733 7.00067 8.5 7C8.08333 7 7.72933 7.146 7.438 7.438C7.14667 7.73 7.00067 8.084 7 8.5C7 8.91667 7.146 9.271 7.438 9.563C7.73 9.855 8.084 10.0007 8.5 10Z" fill="black"/>
</svg>
