<svg width="27" height="27" viewBox="0 0 27 27" fill="none" xmlns="http://www.w3.org/2000/svg">
<path d="M22.4857 6.79042C22.3838 6.67321 22.258 6.57921 22.1167 6.51473C21.9754 6.45026 21.822 6.41682 21.6667 6.41667H6.69608L6.48483 5.15567C6.44278 4.90271 6.31235 4.67287 6.11676 4.50703C5.92117 4.3412 5.6731 4.25012 5.41667 4.25H2.97917C2.69185 4.25 2.4163 4.36414 2.21313 4.5673C2.00997 4.77047 1.89583 5.04602 1.89583 5.33333C1.89583 5.62065 2.00997 5.8962 2.21313 6.09937C2.4163 6.30253 2.69185 6.41667 2.97917 6.41667H4.49908L6.51408 18.511L6.56283 18.6453L6.62133 18.8089L6.75133 19.0028L6.85425 19.1242L7.06333 19.265L7.18467 19.3354C7.31066 19.3881 7.4457 19.4157 7.58225 19.4167H19.5C19.7873 19.4167 20.0629 19.3025 20.266 19.0994C20.4692 18.8962 20.5833 18.6207 20.5833 18.3333C20.5833 18.046 20.4692 17.7705 20.266 17.5673C20.0629 17.3641 19.7873 17.25 19.5 17.25H8.50092L8.32108 16.1667H20.5833C20.844 16.1667 21.096 16.0727 21.293 15.902C21.49 15.7313 21.6188 15.4952 21.6558 15.2372L22.7392 7.65383C22.7611 7.50016 22.7498 7.34357 22.7061 7.19462C22.6624 7.04567 22.5872 6.90784 22.4857 6.79042ZM20.4176 8.58333L20.1088 10.75H16.25V8.58333H20.4176ZM15.1667 8.58333V10.75H11.9167V8.58333H15.1667ZM15.1667 11.8333V14H11.9167V11.8333H15.1667ZM10.8333 8.58333V10.75H7.58333L7.423 10.7825L7.05683 8.58333H10.8333ZM7.5985 11.8333H10.8333V14H7.95925L7.5985 11.8333ZM16.25 14V11.8333H19.9528L19.6441 14H16.25Z" fill="black"/>
<path d="M9.20833 23.75C10.1058 23.75 10.8333 23.0225 10.8333 22.125C10.8333 21.2275 10.1058 20.5 9.20833 20.5C8.31087 20.5 7.58333 21.2275 7.58333 22.125C7.58333 23.0225 8.31087 23.75 9.20833 23.75Z" fill="black"/>
<path d="M18.9583 23.75C19.8558 23.75 20.5833 23.0225 20.5833 22.125C20.5833 21.2275 19.8558 20.5 18.9583 20.5C18.0609 20.5 17.3333 21.2275 17.3333 22.125C17.3333 23.0225 18.0609 23.75 18.9583 23.75Z" fill="black"/>
</svg>
