<svg width="27" height="27" viewBox="0 0 27 27" fill="none" xmlns="http://www.w3.org/2000/svg">
<g clip-path="url(#clip0_20_153)">
<path d="M22.9358 10.7748C22.858 10.5259 22.7113 10.3063 22.514 10.1433C22.3167 9.98028 22.0776 9.88108 21.8263 9.85803L17.055 9.43132L15.1847 4.81743C15.0873 4.57533 14.923 4.36853 14.7126 4.22308C14.5022 4.07762 14.2549 4 14.0021 4C13.7492 4 13.502 4.07762 13.2915 4.22308C13.0811 4.36853 12.9168 4.57533 12.8195 4.81743L10.9548 9.43132L6.1778 9.86053C5.92556 9.88252 5.68519 9.98128 5.48684 10.1444C5.28849 10.3076 5.14099 10.5278 5.06282 10.7776C4.98466 11.0273 4.97931 11.2955 5.04746 11.5484C5.11561 11.8013 5.25422 12.0276 5.4459 12.1991L9.07002 15.4845L7.98383 20.3635C7.92639 20.6188 7.94278 20.886 8.03095 21.1317C8.11911 21.3774 8.27514 21.5907 8.47952 21.7449C8.6839 21.8991 8.92757 21.9874 9.18006 21.9988C9.43256 22.0101 9.68267 21.944 9.89912 21.8086L13.9964 19.225L18.1026 21.8086C18.3191 21.944 18.5692 22.0101 18.8217 21.9988C19.0741 21.9874 19.3178 21.8991 19.5222 21.7449C19.7266 21.5907 19.8826 21.3774 19.9708 21.1317C20.0589 20.886 20.0753 20.6188 20.0179 20.3635L18.9325 15.4795L22.5558 12.1991C22.7475 12.0271 22.8858 11.8 22.9534 11.5466C23.021 11.2932 23.0149 11.0246 22.9358 10.7748ZM21.7131 11.1915L18.0897 14.4719C17.9134 14.631 17.7822 14.837 17.7103 15.0677C17.6384 15.2985 17.6285 15.5451 17.6816 15.7812L18.7702 20.6685L14.6673 18.0848C14.4671 17.9584 14.2372 17.8915 14.0029 17.8915C13.7685 17.8915 13.5386 17.9584 13.3385 18.0848L9.24114 20.6685L10.3225 15.7846C10.3757 15.5485 10.3657 15.3018 10.2938 15.0711C10.2219 14.8404 10.0907 14.6344 9.91439 14.4753L6.28947 11.1965C6.28917 11.194 6.28917 11.1915 6.28947 11.189L11.0649 10.7606C11.298 10.7393 11.5211 10.6524 11.7101 10.5092C11.8991 10.366 12.0469 10.172 12.1374 9.94804L14.0021 5.33999L15.8659 9.94804C15.9565 10.172 16.1042 10.366 16.2932 10.5092C16.4822 10.6524 16.7053 10.7393 16.9385 10.7606L21.7147 11.189V11.1949L21.7131 11.1915Z" fill="black"/>
<path d="M21.943 11.0221C21.8738 10.8008 21.7434 10.6056 21.568 10.4607C21.3926 10.3158 21.1801 10.2276 20.9567 10.2071L16.7155 9.82784L15.053 5.72661C14.9665 5.51141 14.8205 5.32759 14.6334 5.19829C14.4464 5.06899 14.2266 5 14.0018 5C13.7771 5 13.5573 5.06899 13.3703 5.19829C13.1832 5.32759 13.0372 5.51141 12.9506 5.72661L11.2931 9.82784L7.04693 10.2094C6.82272 10.2289 6.60906 10.3167 6.43275 10.4617C6.25644 10.6067 6.12532 10.8025 6.05584 11.0245C5.98636 11.2465 5.98161 11.4849 6.04219 11.7097C6.10277 11.9344 6.22597 12.1357 6.39636 12.2881L9.6178 15.2085L8.65229 19.5453C8.60124 19.7722 8.61581 20.0098 8.69417 20.2282C8.77254 20.4466 8.91123 20.6362 9.09291 20.7733C9.27458 20.9103 9.49118 20.9888 9.71561 20.9989C9.94005 21.009 10.1624 20.9502 10.3548 20.8299L13.9968 18.5333L17.6468 20.8299C17.8392 20.9502 18.0615 21.009 18.2859 20.9989C18.5104 20.9888 18.7269 20.9103 18.9086 20.7733C19.0903 20.6362 19.229 20.4466 19.3074 20.2282C19.3857 20.0098 19.4003 19.7722 19.3492 19.5453L18.3844 15.204L21.6052 12.2881C21.7755 12.1352 21.8985 11.9333 21.9586 11.7081C22.0187 11.4828 22.0133 11.2441 21.943 11.0221ZM20.856 11.3925L17.6353 14.3084C17.4786 14.4498 17.362 14.6329 17.298 14.838C17.2341 15.0431 17.2253 15.2623 17.2725 15.4722L18.2402 19.8164L14.5931 17.5199C14.4152 17.4075 14.2109 17.348 14.0026 17.348C13.7942 17.348 13.5899 17.4075 13.412 17.5199L9.7699 19.8164L10.7311 15.4752C10.7784 15.2653 10.7695 15.046 10.7056 14.841C10.6417 14.6359 10.5251 14.4528 10.3683 14.3113L7.14619 11.3969C7.14593 11.3947 7.14593 11.3925 7.14619 11.3902L11.391 11.0095C11.5982 10.9905 11.7965 10.9132 11.9646 10.7859C12.1326 10.6586 12.2639 10.4862 12.3443 10.2872L14.0018 6.19111L15.6586 10.2872C15.7391 10.4862 15.8704 10.6586 16.0384 10.7859C16.2064 10.9132 16.4047 10.9905 16.612 11.0095L20.8575 11.3902V11.3954L20.856 11.3925Z" fill="black"/>
</g>
<defs>
<clipPath id="clip0_20_153">
<rect width="27" height="27" fill="white"/>
</clipPath>
</defs>
</svg>
